<?xml version="1.0" standalone="no"?>
<!DOCTYPE svg PUBLIC "-//W3C//DTD SVG 20010904//EN"
 "http://www.w3.org/TR/2001/REC-SVG-20010904/DTD/svg10.dtd">
<svg version="1.0" xmlns="http://www.w3.org/2000/svg"
 width="8334.000000pt" height="8334.000000pt" viewBox="0 0 8334.000000 8334.000000"
 preserveAspectRatio="xMidYMid meet">

<g transform="translate(0.000000,8334.000000) scale(0.100000,-0.100000)"
fill="#000000" stroke="none">
<path d="M12302 68975 c-137 -565 -259 -1362 -316 -2065 -50 -607 -68 -1344
-47 -1940 7 -184 14 -353 16 -375 2 -22 6 -87 10 -145 20 -351 87 -955 150
-1352 562 -3564 2303 -6477 5165 -8645 1375 -1041 3049 -1921 4948 -2598 73
-26 131 -49 130 -50 -2 -2 -93 -48 -203 -104 -429 -215 -693 -378 -1595 -976
-968 -643 -1271 -828 -1765 -1080 -908 -463 -1806 -720 -2690 -771 -60 -3
-126 -7 -145 -9 -19 -2 -96 -4 -170 -5 l-135 -1 105 -45 c724 -311 1529 -761
2183 -1221 593 -416 998 -770 1509 -1316 483 -516 617 -655 818 -857 772 -772
1467 -1291 2205 -1646 606 -291 1220 -458 1895 -513 171 -14 716 -6 900 13
597 64 1181 208 1767 437 58 23 106 39 108 38 2 -2 -44 -171 -101 -374 -58
-204 -136 -480 -174 -615 -38 -135 -193 -684 -345 -1220 -152 -536 -433 -1531
-625 -2210 -192 -679 -473 -1674 -625 -2210 -481 -1701 -845 -2988 -905 -3200
-32 -113 -187 -662 -345 -1220 -158 -558 -329 -1163 -380 -1345 -52 -181 -195
-689 -319 -1128 -124 -439 -226 -801 -226 -805 0 -3 8 5 17 18 19 28 601 819
838 1140 83 113 335 455 560 760 225 305 463 629 530 720 68 91 265 359 439
595 175 237 320 430 324 430 4 0 8 -7 9 -15 2 -14 277 -1474 433 -2300 38
-201 193 -1022 344 -1825 294 -1559 329 -1744 486 -2575 56 -294 108 -569 115
-610 8 -41 59 -316 115 -610 55 -294 144 -762 196 -1040 188 -998 235 -1245
240 -1260 3 -8 57 85 124 214 167 318 238 453 270 511 15 28 60 113 100 190
40 77 111 212 158 300 79 150 112 213 217 410 23 44 67 127 98 185 115 221
451 859 492 935 23 44 109 206 190 360 193 367 219 415 225 415 3 0 21 -42 39
-92 18 -51 234 -644 478 -1318 245 -674 527 -1452 628 -1730 101 -278 449
-1238 775 -2135 748 -2061 1074 -2957 1307 -3600 101 -280 188 -515 191 -522
5 -8 349 397 962 1133 525 630 960 1152 967 1161 13 16 -37 53 1490 -1097 996
-750 2029 -1528 2573 -1938 327 -246 863 -650 1190 -896 1106 -834 1421 -1071
1434 -1080 13 -9 54 20 781 569 376 283 941 709 1560 1175 505 380 943 710
1560 1175 176 133 523 394 770 580 248 186 594 447 770 580 1090 822 1258 946
1265 939 5 -5 441 -528 969 -1162 945 -1135 961 -1153 972 -1125 11 27 180
494 964 2653 212 586 552 1522 755 2080 468 1288 1060 2920 1410 3885 150 413
275 755 279 762 4 7 21 -16 41 -55 19 -37 105 -200 191 -362 85 -162 231 -439
324 -615 92 -176 182 -347 200 -380 18 -33 58 -109 90 -170 32 -60 75 -141 95
-180 40 -73 275 -520 388 -735 36 -69 123 -235 195 -370 71 -135 156 -297 189
-360 125 -238 162 -304 165 -295 1 6 21 105 42 220 22 116 79 415 126 665 110
582 189 1000 370 1960 191 1015 357 1895 445 2360 142 750 356 1886 615 3260
63 333 150 799 195 1035 103 546 140 738 144 743 2 1 104 -133 227 -300 122
-167 291 -395 374 -508 83 -113 216 -293 295 -400 79 -107 173 -235 210 -285
36 -49 163 -220 280 -380 118 -159 282 -382 365 -495 83 -113 225 -306 315
-428 91 -123 220 -299 288 -390 68 -92 173 -236 234 -319 62 -84 113 -151 115
-149 3 3 -241 873 -677 2411 -121 426 -464 1641 -570 2015 -57 200 -360 1272
-895 3165 -406 1436 -850 3004 -921 3255 -35 124 -149 529 -254 900 -105 371
-231 817 -280 990 -49 173 -170 600 -268 948 -98 347 -175 632 -171 632 5 0
55 -18 111 -41 57 -23 216 -79 353 -124 458 -153 859 -245 1275 -294 96 -11
195 -23 220 -26 83 -11 694 -14 810 -4 705 58 1310 226 1945 539 278 137 446
233 705 405 643 425 1188 915 2086 1874 538 575 595 632 897 894 774 671 1820
1326 2847 1781 102 45 196 87 210 93 20 10 2 12 -95 13 -217 1 -576 30 -822
66 -929 134 -1810 465 -2798 1052 -280 167 -494 304 -1170 752 -933 618 -1179
768 -1634 995 l-163 82 93 32 c52 18 207 75 344 126 2128 791 3963 1844 5415
3109 350 305 812 753 1100 1066 1876 2043 3016 4570 3370 7471 22 181 55 517
65 649 3 47 8 105 10 130 2 25 7 99 10 165 3 66 8 149 10 185 3 36 10 229 15
430 24 837 -36 1830 -161 2695 -63 436 -210 1186 -238 1217 -4 4 -26 -59 -49
-140 -23 -82 -74 -252 -113 -378 -681 -2203 -1641 -4051 -2865 -5514 -1629
-1947 -3699 -3215 -6204 -3799 -675 -157 -1518 -279 -2180 -316 -63 -4 -126
-9 -140 -11 -46 -7 -593 -19 -895 -19 -276 0 -744 12 -798 20 -12 2 -76 6
-142 10 -980 52 -2205 251 -3114 507 -142 39 -146 41 -270 129 -171 119 -371
239 -671 401 -36 20 -308 157 -605 306 -714 358 -935 480 -1280 708 -369 244
-644 462 -1270 1009 -365 319 -536 465 -700 596 -791 632 -1474 965 -2328
1134 -159 31 -458 72 -592 80 -55 4 -113 8 -130 11 -46 6 -603 6 -702 -1 -439
-30 -699 -60 -1113 -131 -903 -154 -1974 -458 -2945 -835 l-231 -90 -175 69
c-653 261 -1514 531 -2214 696 -688 162 -1271 252 -1897 291 -119 7 -624 8
-705 1 -32 -3 -114 -10 -183 -16 -716 -61 -1417 -279 -2030 -631 -423 -242
-802 -532 -1515 -1159 -786 -691 -1170 -978 -1740 -1302 -239 -135 -297 -165
-910 -473 -716 -359 -970 -502 -1240 -698 -79 -58 -124 -73 -470 -162 -870
-222 -1962 -390 -2865 -440 -58 -3 -121 -8 -140 -10 -228 -25 -1502 -25 -1695
0 -17 2 -82 6 -145 10 -63 3 -213 15 -333 25 -1883 170 -3583 691 -5068 1556
-1777 1034 -3246 2564 -4366 4549 -628 1113 -1174 2436 -1573 3812 -33 114
-62 213 -64 218 -1 6 -17 -48 -34 -120z m32828 -6805 c8 -5 11 -10 5 -10 -5 0
-17 5 -25 10 -8 5 -10 10 -5 10 6 0 17 -5 25 -10z m-83 -16 c-3 -3 -12 -4 -19
-1 -8 3 -5 6 6 6 11 1 17 -2 13 -5z m-8819 -318 c-7 -8 -15 -12 -17 -11 -5 6
10 25 20 25 5 0 4 -6 -3 -14z m10940 -28 c-2 -7 3 -12 11 -10 11 2 12 0 3 -11
-7 -8 -9 -17 -5 -20 3 -4 4 -7 1 -7 -2 0 -15 12 -29 27 -13 14 -19 23 -12 19
6 -3 14 -2 18 4 9 14 16 13 13 -2z m-10980 -6 c15 11 15 11 5 -3 -7 -9 -9 -20
-5 -25 4 -4 -1 -2 -10 5 -10 7 -18 19 -17 25 0 6 3 6 6 -2 4 -10 8 -10 21 0z
m10919 -34 c-3 -8 -6 -5 -6 6 -1 11 2 17 5 13 3 -3 4 -12 1 -19z m-10867 -4
c0 -8 -19 -13 -24 -6 -3 5 1 9 9 9 8 0 15 -2 15 -3z m33396 -36 c-9 -12 -16
-19 -16 -15 0 11 24 47 28 42 2 -2 -3 -14 -12 -27z m-33503 0 c-4 -7 -8 -17
-8 -22 0 -5 -7 -11 -15 -13 -13 -4 -13 -3 0 6 8 6 11 11 6 11 -5 0 -3 7 4 15
15 18 24 20 13 3z m11074 -2 c-1 -6 4 -10 11 -8 14 2 16 -4 3 -12 -4 -3 -16 3
-25 13 -13 14 -14 18 -2 18 8 0 14 -5 13 -11z m-43 -42 c3 -8 2 -12 -4 -9 -6
3 -10 10 -10 16 0 14 7 11 14 -7z m81 6 c-3 -5 -12 -10 -18 -10 -7 0 -6 4 3
10 19 12 23 12 15 0z m30 -19 c-9 -8 -36 -10 -30 -2 2 4 11 8 20 8 8 0 13 -3
10 -6z m-11191 -23 c-3 -5 -10 -6 -15 -3 -5 4 -9 1 -9 -6 0 -8 -4 -8 -15 1
-12 10 -15 10 -15 0 0 -8 -3 -11 -6 -7 -12 11 4 22 34 22 17 1 28 -3 26 -7z
m11107 -20 c8 -15 8 -18 0 -14 -6 4 -16 16 -22 28 -8 15 -8 18 0 14 6 -4 16
-16 22 -28z m13 -37 c-8 -8 -43 -8 -38 0 2 4 13 7 24 6 10 -1 17 -3 14 -6z
m1450 1 c3 -5 -1 -9 -9 -9 -8 0 -12 4 -9 9 3 4 7 8 9 8 2 0 6 -4 9 -8z
m-12624 -6 c0 -2 -8 -10 -17 -17 -16 -13 -17 -12 -4 4 13 16 21 21 21 13z
m-84 -25 c0 -16 -3 -17 -14 -9 -12 10 -7 19 13 28 1 0 1 -9 1 -19z m-22178
-16 c-3 -3 -9 2 -12 12 -6 14 -5 15 5 6 7 -7 10 -15 7 -18z m22382 -10 c0 -5
-5 -3 -10 5 -5 8 -10 20 -10 25 0 6 5 3 10 -5 5 -8 10 -19 10 -25z m-49 2
c-10 -9 -11 -8 -5 6 3 10 9 15 12 12 3 -3 0 -11 -7 -18z m-155 -33 c2 -12 -1
-13 -12 -3 -7 6 -11 16 -8 21 7 11 17 3 20 -18z m11295 13 c-6 -8 -7 -18 -3
-22 4 -5 2 -5 -5 -1 -14 8 -6 36 9 36 7 0 6 -5 -1 -13z m-11301 -40 c0 -2 -10
-12 -22 -23 l-23 -19 19 23 c18 21 26 27 26 19z m12911 -14 c13 -16 12 -17 -3
-4 -10 7 -18 15 -18 17 0 8 8 3 21 -13z m-35040 -16 c-10 -9 -11 -8 -5 6 3 10
9 15 12 12 3 -3 0 -11 -7 -18z m33650 -44 c13 -16 12 -17 -3 -4 -10 7 -18 15
-18 17 0 8 8 3 21 -13z m21993 -23 c-6 -6 -10 -3 -10 10 0 13 4 16 10 10 7 -7
7 -13 0 -20z m-22130 12 c3 -5 -1 -9 -9 -9 -8 0 -12 4 -9 9 3 4 7 8 9 8 2 0 6
-4 9 -8z m-11318 -31 c0 -11 -4 -17 -8 -15 -4 3 -8 0 -8 -7 0 -7 -3 -10 -6 -7
-5 5 12 48 19 48 2 0 3 -9 3 -19z m-22105 -64 c-10 -9 -11 -8 -5 6 3 10 9 15
12 12 3 -3 0 -11 -7 -18z m33686 -4 c-4 -3 -1 -13 6 -22 10 -14 10 -14 -4 -4
-9 7 -18 10 -21 7 -3 -3 -9 0 -14 7 -4 7 -3 10 4 5 6 -3 13 -2 17 4 3 5 9 10
12 10 4 0 3 -3 0 -7z m-33680 -40 c0 -9 -4 -10 -14 -2 -7 6 -13 12 -13 14 0 1
6 2 13 2 8 0 14 -6 14 -14z m21823 -3 c3 -1 9 -2 13 -1 5 1 6 -3 2 -9 -5 -8
-11 -8 -19 -1 -7 6 -15 8 -18 5 -3 -3 -9 -1 -12 4 -5 9 14 9 34 2z m5615 -20
c3 -6 -1 -7 -9 -4 -18 7 -21 14 -7 14 6 0 13 -4 16 -10z m-5710 -92 c-1 -12
-9 -22 -18 -24 -15 -2 -15 0 0 22 19 29 20 30 18 2z m26 -1 c-10 -9 -11 -8 -5
6 3 10 9 15 12 12 3 -3 0 -11 -7 -18z m6156 -3 c-3 -3 -12 -4 -19 -1 -8 3 -5
6 6 6 11 1 17 -2 13 -5z m-27826 -67 c-10 -9 -11 -8 -5 6 3 10 9 15 12 12 3
-3 0 -11 -7 -18z m21599 19 c0 -2 -8 -10 -17 -17 -16 -13 -17 -12 -4 4 13 16
21 21 21 13z m11920 -21 c14 -19 14 -19 -2 -6 -10 7 -18 18 -18 24 0 6 1 8 3
6 1 -2 9 -13 17 -24z m-11920 -9 c0 -2 -8 -10 -17 -17 -16 -13 -17 -12 -4 4
13 16 21 21 21 13z m236 -18 c5 -7 3 -8 -6 -3 -10 6 -12 4 -7 -9 4 -9 3 -15
-2 -12 -5 3 -12 -2 -15 -11 -4 -9 -2 -20 5 -23 7 -5 8 -10 1 -14 -18 -11 -22
25 -7 55 17 32 21 34 31 17z m11712 -23 c-3 -3 -9 2 -12 12 -6 14 -5 15 5 6 7
-7 10 -15 7 -18z m23 -32 c13 -16 12 -17 -3 -4 -10 7 -18 15 -18 17 0 8 8 3
21 -13z m1770 0 c13 -16 12 -17 -3 -4 -10 7 -18 15 -18 17 0 8 8 3 21 -13z
m-1506 -2 c3 -5 2 -12 -3 -15 -5 -3 -9 1 -9 9 0 17 3 19 12 6z m-12315 -26
c-7 -9 -15 -13 -17 -11 -7 7 7 26 19 26 6 0 6 -6 -2 -15z m12031 -8 c-10 -9
-11 -8 -5 6 3 10 9 15 12 12 3 -3 0 -11 -7 -18z m-33487 -3 c3 -8 2 -12 -4 -9
-6 3 -10 10 -10 16 0 14 7 11 14 -7z m33850 -25 c-3 -5 -10 -7 -15 -3 -5 3 -7
10 -3 15 3 5 10 7 15 3 5 -3 7 -10 3 -15z m-12429 -1 c4 -3 2 -9 -3 -12 -5 -3
-15 1 -21 8 -10 11 -9 14 3 12 9 -1 18 -5 21 -8z m12154 -46 c7 -13 6 -19 -2
-19 -7 0 -13 9 -13 19 0 10 1 18 3 18 1 0 7 -8 12 -18z m-13709 4 c0 -2 -8
-10 -17 -17 -16 -13 -17 -12 -4 4 13 16 21 21 21 13z m1784 -30 c-3 -9 -10
-16 -15 -16 -5 0 -4 9 3 20 14 22 21 20 12 -4z m-1833 -29 c-10 -9 -11 -8 -5
6 3 10 9 15 12 12 3 -3 0 -11 -7 -18z m1520 6 c12 -16 12 -17 -2 -6 -9 7 -20
9 -24 5 -5 -4 -5 -1 -1 6 9 16 11 15 27 -5z m12579 -23 c0 -5 -2 -10 -4 -10
-3 0 -8 5 -11 10 -3 6 -1 10 4 10 6 0 11 -4 11 -10z m21040 6 c0 -2 -8 -10
-17 -17 -16 -13 -17 -12 -4 4 13 16 21 21 21 13z m-53217 -52 c-6 -17 -16 -19
-10 -1 2 6 -3 21 -12 32 -16 20 -16 20 6 2 12 -11 19 -25 16 -33z m51776 13
c0 -9 -2 -9 -5 0 -4 8 -11 7 -24 -4 -10 -9 -16 -21 -13 -26 4 -6 1 -7 -6 -2
-9 5 -7 13 10 31 22 23 40 24 38 1z m-32255 -8 c-3 -5 -10 -7 -15 -3 -5 3 -7
10 -3 15 3 5 10 7 15 3 5 -3 7 -10 3 -15z m12681 13 c-3 -3 5 -17 17 -31 19
-21 17 -20 -10 3 -37 35 -36 33 -17 33 8 0 13 -3 10 -5z m-12345 -32 c6 -11 8
-20 6 -20 -3 0 -10 9 -16 20 -6 11 -8 20 -6 20 3 0 10 -9 16 -20z m12391 3
c13 -16 12 -17 -3 -4 -10 7 -18 15 -18 17 0 8 8 3 21 -13z m-12397 -42 c-2 -3
-12 3 -22 13 -16 17 -16 18 5 5 12 -7 20 -15 17 -18z m12079 4 c-7 -21 -12
-19 -10 4 0 11 5 18 9 15 4 -3 5 -11 1 -19z m-31786 -70 c0 -8 -4 -12 -9 -9
-5 4 -7 9 -4 12 3 3 -2 15 -11 26 -18 21 -18 21 3 3 11 -9 21 -24 21 -32z
m32172 -7 c20 -33 8 -27 -24 10 -22 26 -24 32 -9 22 12 -7 27 -22 33 -32z
m-12879 -8 c0 -3 -15 -19 -32 -36 -27 -23 -29 -24 -10 -3 12 14 19 29 15 34
-5 4 -2 5 5 1 15 -9 15 -1 1 27 -10 21 -10 21 5 3 9 -11 16 -23 16 -26z
m-19345 12 c-3 -3 -11 0 -18 7 -9 10 -8 11 6 5 10 -3 15 -9 12 -12z m52981
-10 c-17 -16 -18 -16 -5 5 7 12 15 20 18 17 3 -2 -3 -12 -13 -22z m-52828 -58
c1 -1 -5 -5 -15 -8 -9 -4 -14 -4 -10 0 4 4 -10 26 -30 48 l-38 41 45 -40 c25
-22 46 -41 48 -41z m19516 41 c-4 -8 -11 -15 -16 -15 -6 0 -5 6 2 15 7 8 14
15 16 15 2 0 1 -7 -2 -15z m12601 -4 c3 -5 2 -12 -3 -15 -5 -3 -9 1 -9 9 0 17
3 19 12 6z m19198 -6 c4 -8 3 -16 -1 -19 -4 -3 -9 4 -9 15 -2 23 3 25 10 4z
m-32173 1 c0 -2 -8 -10 -17 -17 -16 -13 -17 -12 -4 4 13 16 21 21 21 13z
m-19231 -30 c8 -10 9 -16 1 -21 -6 -4 -9 -1 -8 7 2 7 -3 12 -10 10 -8 -1 -11
2 -7 8 8 13 10 13 24 -4z m17725 -1 c-4 -8 -11 -15 -16 -15 -6 0 -5 6 2 15 7
8 14 15 16 15 2 0 1 -7 -2 -15z m14110 -15 c-6 -6 -10 -3 -10 10 0 13 4 16 10
10 7 -7 7 -13 0 -20z m19494 -25 c-3 -3 -9 2 -12 12 -6 14 -5 15 5 6 7 -7 10
-15 7 -18z m-19042 3 c5 -7 3 -8 -6 -3 -10 6 -12 4 -6 -11 5 -14 4 -16 -5 -7
-6 6 -8 16 -5 22 9 14 13 14 22 -1z m-12732 -6 c3 -5 -1 -9 -9 -9 -8 0 -12 4
-9 9 3 4 7 8 9 8 2 0 6 -4 9 -8z m12356 -22 c6 -11 8 -20 6 -20 -3 0 -10 9
-16 20 -6 11 -8 20 -6 20 3 0 10 -9 16 -20z m-31729 -7 c13 -16 12 -17 -3 -4
-10 7 -18 15 -18 17 0 8 8 3 21 -13z m51076 -8 c0 -8 -4 -12 -9 -9 -5 3 -6 10
-3 15 9 13 12 11 12 -6z m-19346 -22 c13 -16 12 -17 -3 -4 -10 7 -18 15 -18
17 0 8 8 3 21 -13z m48 -43 l23 -35 -26 30 c-14 17 -26 34 -26 39 0 11 0 11
29 -34z m-31709 -5 c11 -13 10 -14 -4 -9 -9 3 -16 10 -16 15 0 13 6 11 20 -6z
m31 -2 c13 -16 12 -17 -3 -4 -10 7 -18 15 -18 17 0 8 8 3 21 -13z m31664 -13
c3 -5 1 -10 -4 -10 -6 0 -11 5 -11 10 0 6 2 10 4 10 3 0 8 -4 11 -10z m19189
-8 c3 -5 -1 -9 -9 -9 -8 0 -12 4 -9 9 3 4 7 8 9 8 2 0 6 -4 9 -8z m-17264 -22
c6 -11 8 -20 6 -20 -3 0 -10 9 -16 20 -6 11 -8 20 -6 20 3 0 10 -9 16 -20z
m-14816 1 c3 -5 -2 -15 -12 -22 -15 -12 -16 -12 -5 2 7 9 10 19 6 22 -3 4 -4
7 0 7 3 0 8 -4 11 -9z m-18693 -18 c13 -16 12 -17 -3 -4 -10 7 -18 15 -18 17
0 8 8 3 21 -13z m19079 -3 c-6 -11 -13 -20 -16 -20 -2 0 0 9 6 20 6 11 13 20
16 20 2 0 0 -9 -6 -20z m31606 -42 c4 -6 3 -8 -4 -5 -13 9 -44 -2 -37 -13 3
-5 1 -11 -5 -15 -6 -4 -7 -11 -4 -17 4 -7 2 -8 -5 -4 -9 6 -9 11 0 22 6 8 8
14 3 14 -11 1 26 30 37 30 4 0 11 -5 15 -12z m-52518 -33 c-3 -3 -9 2 -12 12
-6 14 -5 15 5 6 7 -7 10 -15 7 -18z m20442 1 c0 -2 -8 -10 -17 -17 -16 -13
-17 -12 -4 4 13 16 21 21 21 13z m13540 -21 c14 -18 13 -19 -1 -8 -9 7 -19 10
-23 6 -4 -4 -4 1 0 10 3 10 7 17 8 15 1 -2 8 -12 16 -23z m18457 10 c0 -8 -4
-12 -9 -9 -5 3 -6 10 -3 15 9 13 12 11 12 -6z m-50484 -9 c7 -18 -18 -42 -28
-26 -4 6 -1 9 7 8 8 -2 12 4 10 15 -3 21 4 23 11 3z m18917 -12 c0 -8 -19 -13
-24 -6 -3 5 1 9 9 9 8 0 15 -2 15 -3z m31564 -23 c-2 -3 -12 3 -22 13 -16 17
-16 18 5 5 12 -7 20 -15 17 -18z m-50423 -2 c13 -11 19 -18 12 -15 -6 4 -13 3
-16 -1 -2 -5 -2 -3 -1 4 3 14 -24 26 -38 16 -7 -3 -8 -1 -4 5 10 17 21 15 47
-9z m31536 -11 c2 -17 0 -19 -7 -8 -5 8 -6 18 -4 22 8 12 10 10 11 -14z
m-12753 -33 c-9 -14 -18 -25 -21 -25 -5 0 5 18 20 38 17 22 18 13 1 -13z
m12787 8 c13 -16 12 -17 -3 -4 -10 7 -18 15 -18 17 0 8 8 3 21 -13z m18768 14
c-2 -1 -13 -9 -24 -17 -19 -14 -19 -14 -6 3 7 9 18 17 24 17 6 0 8 -1 6 -3z
m41 -21 c0 -3 -4 -8 -10 -11 -5 -3 -10 -1 -10 4 0 6 5 11 10 11 6 0 10 -2 10
-4z m-52040 -16 c0 -5 -2 -10 -4 -10 -3 0 -8 5 -11 10 -3 6 -1 10 4 10 6 0 11
-4 11 -10z m35181 -17 c13 -16 12 -17 -3 -4 -10 7 -18 15 -18 17 0 8 8 3 21
-13z m-1901 -33 c0 -5 -2 -10 -4 -10 -3 0 -8 5 -11 10 -3 6 -1 10 4 10 6 0 11
-4 11 -10z m-31435 -31 c-4 -5 -12 -9 -18 -8 -9 0 -8 2 1 6 6 2 9 10 6 15 -4
7 -2 8 5 4 6 -4 9 -12 6 -17z m18075 17 c0 -3 -4 -8 -10 -11 -5 -3 -10 -1 -10
4 0 6 5 11 10 11 6 0 10 -2 10 -4z m480 -33 c0 -3 -6 -3 -14 0 -7 3 -20 0 -27
-6 -11 -10 -11 -9 0 5 11 15 41 15 41 1z m12925 -23 l20 -25 -22 19 c-13 11
-23 24 -23 29 0 6 1 8 3 6 1 -2 11 -15 22 -29z m-13502 5 c-3 -9 -8 -14 -10
-11 -3 3 -2 9 2 15 9 16 15 13 8 -4z m31984 -7 c0 -13 -1 -17 -4 -10 -4 10
-10 9 -27 -5 -17 -14 -16 -12 3 10 14 15 25 27 26 27 0 0 1 -10 2 -22z
m-31461 -14 c-16 -15 -13 -39 4 -29 5 3 12 0 16 -7 4 -7 4 -10 -1 -6 -4 4 -14
3 -22 -3 -7 -6 -13 -8 -13 -4 0 4 -7 2 -16 -6 -21 -17 -65 -105 -61 -121 2 -7
2 -9 -1 -4 -3 5 -13 -6 -22 -25 -65 -126 -192 -385 -215 -439 -15 -36 -43 -98
-61 -138 -19 -40 -34 -75 -34 -78 0 -3 -6 -20 -14 -37 -8 -18 -28 -70 -46
-117 -18 -47 -38 -98 -45 -115 -16 -39 -84 -241 -128 -380 -32 -101 -75 -260
-97 -359 -5 -23 -16 -70 -25 -106 -16 -67 -46 -227 -71 -385 -49 -308 -63
-855 -30 -1110 3 -22 11 -80 17 -130 6 -49 15 -94 18 -100 4 -5 8 -20 9 -33 3
-63 96 -365 148 -480 47 -102 113 -236 146 -293 62 -104 92 -154 98 -159 3 -3
39 -54 79 -115 41 -60 80 -114 87 -120 6 -5 17 -19 25 -31 13 -20 52 -66 158
-188 57 -67 271 -278 341 -338 214 -181 386 -310 524 -392 17 -10 33 -21 36
-25 6 -8 60 -41 140 -84 30 -16 75 -41 100 -55 50 -29 256 -132 264 -132 3 0
33 -13 68 -30 35 -16 99 -43 143 -60 44 -17 89 -35 100 -40 11 -5 58 -21 105
-35 47 -15 97 -30 113 -35 15 -5 27 -6 27 -3 0 3 6 1 13 -4 6 -6 46 -18 87
-27 41 -10 111 -26 155 -36 148 -35 309 -52 525 -57 258 -6 417 10 626 64 76
19 150 38 164 40 14 3 30 9 35 13 6 4 42 20 80 36 75 29 240 109 259 125 6 5
34 24 61 41 28 18 52 35 55 38 3 3 21 17 40 30 59 40 151 121 235 205 76 77
247 291 275 345 7 14 16 27 19 30 25 20 102 170 95 183 -4 6 -4 9 1 5 11 -10
77 122 121 238 110 294 148 631 98 884 -23 117 -54 242 -69 275 -7 17 -18 46
-25 65 -12 32 -77 167 -111 230 -25 46 -108 167 -124 180 -8 7 -15 16 -15 21
0 21 -217 238 -290 290 -25 18 -47 35 -50 38 -20 24 -183 123 -232 142 -16 6
-28 15 -28 20 0 5 -5 9 -11 9 -7 0 -56 18 -110 39 -403 162 -811 137 -1174
-72 -73 -42 -188 -124 -193 -139 -6 -13 -22 -9 -22 5 0 12 160 180 226 237 65
57 186 143 275 194 52 31 99 60 106 66 7 5 18 10 25 10 8 0 22 6 33 13 11 7
36 19 55 27 19 7 58 23 86 36 28 12 84 32 125 43 41 12 97 28 124 36 167 49
380 75 605 76 392 1 596 -49 873 -215 124 -75 293 -235 406 -386 39 -52 75
-100 81 -107 5 -7 10 -14 10 -17 0 -3 13 -25 30 -49 38 -57 130 -240 130 -260
0 -8 4 -17 9 -19 18 -7 109 -282 140 -423 6 -27 15 -72 22 -100 37 -166 46
-664 16 -855 -37 -230 -60 -322 -132 -515 -55 -150 -182 -404 -206 -413 -5 -2
-9 -9 -9 -16 0 -7 -10 -26 -22 -43 -13 -16 -32 -43 -43 -58 -26 -37 -197 -255
-253 -325 -230 -284 -372 -461 -449 -562 -50 -67 -95 -124 -100 -127 -4 -3
-20 -24 -35 -46 -14 -22 -35 -51 -46 -65 -73 -89 -217 -302 -340 -503 -75
-121 -217 -407 -262 -527 -17 -47 -38 -101 -46 -120 -22 -56 -72 -258 -66
-265 4 -3 2 -9 -4 -13 -15 -10 -52 -232 -65 -392 -10 -135 -6 -309 12 -470 13
-123 41 -294 49 -300 3 -3 7 -18 8 -35 3 -42 63 -278 73 -289 5 -6 9 -18 9
-27 0 -14 34 -132 94 -329 19 -61 56 -196 61 -225 2 -6 17 -67 34 -137 17 -69
31 -135 31 -146 0 -12 4 -31 9 -44 14 -35 37 -145 71 -338 17 -96 33 -186 36
-200 32 -160 98 -761 112 -1020 9 -169 9 -868 0 -1005 -14 -198 -43 -505 -59
-605 -5 -36 -18 -123 -28 -195 -11 -71 -22 -139 -24 -151 -3 -12 -8 -45 -12
-75 -4 -30 -10 -61 -15 -69 -4 -8 -11 -37 -14 -65 -4 -27 -12 -66 -17 -85 -5
-19 -29 -116 -53 -216 -25 -99 -53 -207 -64 -240 -10 -32 -27 -88 -37 -124
-10 -36 -22 -69 -27 -75 -4 -5 -8 -15 -8 -23 0 -8 -6 -28 -13 -45 -8 -18 -22
-57 -31 -87 -17 -53 -117 -313 -136 -355 -14 -30 -77 -179 -117 -275 -19 -47
-38 -89 -42 -95 -4 -5 -14 -26 -21 -45 -7 -19 -30 -72 -52 -117 -21 -45 -38
-84 -38 -87 0 -3 -20 -47 -44 -98 -24 -51 -63 -136 -86 -188 -50 -114 -82
-184 -121 -267 -16 -34 -29 -69 -29 -77 0 -8 -4 -17 -9 -20 -5 -3 -23 -43 -41
-88 -18 -46 -38 -96 -45 -113 -7 -16 -25 -64 -40 -105 -14 -41 -31 -84 -35
-95 -5 -11 -13 -36 -19 -55 -5 -19 -21 -73 -36 -120 -36 -116 -70 -276 -96
-455 -20 -129 -23 -190 -23 -440 0 -338 21 -583 71 -840 27 -142 124 -417 173
-495 9 -14 29 -50 44 -80 16 -30 37 -64 46 -75 10 -11 30 -40 46 -64 104 -161
323 -352 512 -446 83 -41 280 -108 298 -101 7 3 14 0 17 -7 5 -17 295 -16 367
1 59 15 222 72 230 82 3 3 30 18 60 34 149 79 303 231 422 417 55 86 98 166
98 183 0 9 4 16 9 16 5 0 14 15 21 33 12 32 45 115 61 152 35 81 81 254 72
269 -4 5 -1 6 5 2 8 -5 12 1 13 16 l0 23 9 -23 c6 -13 6 -32 0 -46 -5 -13 -10
-46 -12 -73 -2 -26 -6 -50 -10 -53 -3 -3 -8 -25 -11 -50 -15 -134 -130 -544
-204 -725 -53 -129 -153 -338 -165 -343 -5 -2 -8 -8 -8 -13 0 -16 -98 -173
-130 -207 -16 -18 -30 -35 -30 -37 0 -18 -83 -113 -174 -202 -166 -159 -355
-276 -531 -327 -33 -10 -69 -21 -80 -26 -11 -4 -47 -18 -80 -30 -173 -65 -341
-170 -470 -297 -158 -154 -259 -323 -315 -523 -7 -25 -16 -56 -21 -70 -5 -14
-18 -79 -30 -145 -48 -282 -33 -657 42 -1060 36 -192 45 -235 75 -350 1 -5 7
-30 12 -55 41 -187 154 -446 234 -534 10 -11 18 -24 18 -29 0 -10 108 -151
160 -209 65 -73 288 -288 299 -288 3 0 26 -19 51 -41 148 -132 589 -389 810
-472 41 -16 83 -32 92 -37 44 -24 344 -124 433 -145 33 -8 113 -28 177 -44 64
-16 134 -32 155 -35 21 -3 70 -12 109 -20 38 -8 92 -17 120 -20 27 -3 103 -12
168 -21 252 -32 426 -38 626 -21 216 19 477 54 502 67 10 5 18 8 18 6 0 -3 37
3 83 13 45 10 118 25 162 34 44 9 89 20 100 25 11 5 45 14 75 21 72 17 378
118 425 140 46 22 171 70 183 70 6 0 12 5 12 10 0 6 5 10 11 10 11 0 140 61
149 71 3 3 34 20 70 38 36 19 67 36 70 40 3 3 22 14 43 24 24 10 35 22 31 29
-4 7 -3 8 4 4 10 -6 48 9 62 24 3 3 30 21 60 40 85 54 145 102 142 114 -2 6 0
8 3 4 29 -28 363 292 508 487 82 109 177 257 177 275 0 5 6 15 13 22 13 14 24
40 67 163 50 141 75 240 115 455 8 41 20 100 26 130 7 30 13 73 13 95 1 22 4
42 7 45 15 11 41 279 46 472 6 209 -8 439 -29 465 -5 7 -7 16 -5 20 9 14 -38
199 -69 273 -34 79 -99 208 -128 250 -48 71 -56 80 -158 181 -91 91 -262 213
-325 233 -13 4 -23 12 -23 17 0 5 -6 9 -14 9 -7 0 -38 11 -67 24 -30 13 -110
42 -178 65 -145 49 -243 94 -332 152 -157 103 -333 279 -446 444 -108 159
-247 431 -299 585 -16 47 -31 87 -34 90 -3 3 -14 32 -23 65 -10 33 -29 98 -43
145 -14 47 -29 101 -35 120 -15 57 -60 278 -73 370 -7 47 -15 91 -17 99 -2 7
2 16 9 18 7 3 12 -3 12 -13 0 -19 58 -211 90 -299 26 -71 89 -215 100 -225 5
-5 31 -52 58 -105 9 -16 22 -36 29 -43 7 -7 13 -17 13 -22 0 -5 6 -15 13 -22
7 -7 23 -29 37 -48 35 -52 187 -205 234 -237 23 -16 43 -30 46 -33 17 -19 107
-70 122 -70 10 0 18 -4 18 -8 0 -15 140 -67 200 -74 14 -2 30 -7 36 -11 7 -4
63 -9 125 -13 101 -5 164 0 264 20 43 9 229 69 235 76 3 3 34 20 70 39 111 57
220 141 343 265 64 65 117 122 117 126 0 5 6 15 13 22 41 41 157 236 157 262
0 9 4 16 9 16 5 0 23 37 41 83 17 45 35 89 40 98 9 18 68 224 73 259 2 14 7
32 10 40 12 29 40 278 54 480 14 195 7 651 -11 770 -26 175 -43 266 -61 327
-9 32 -26 92 -36 133 -11 41 -22 82 -26 90 -3 8 -8 24 -10 34 -2 11 -7 24 -12
30 -5 6 -14 29 -21 51 -21 69 -140 366 -181 453 -21 45 -39 85 -39 88 0 2 -22
51 -48 107 -27 56 -57 123 -67 150 -10 26 -22 47 -26 47 -5 0 -9 8 -9 18 0 10
-7 27 -15 38 -8 10 -15 24 -15 31 0 6 -22 59 -50 117 -27 58 -50 110 -50 115
0 5 -16 41 -35 80 -19 38 -35 72 -35 75 0 3 -15 39 -34 80 -19 41 -43 99 -53
128 -10 29 -21 55 -24 58 -7 7 -83 194 -123 306 -18 50 -35 95 -39 101 -11 18
-67 197 -67 214 0 10 -4 19 -8 21 -4 2 -16 32 -26 68 -71 251 -95 340 -116
440 -11 47 -26 117 -34 155 -16 70 -62 329 -71 395 -3 19 -14 105 -25 190 -17
136 -25 213 -44 435 -21 243 -26 996 -7 1206 6 68 16 180 21 249 15 176 48
467 59 520 6 25 17 101 26 170 9 69 20 139 25 155 5 17 12 48 15 70 9 71 78
407 95 465 5 19 19 76 31 125 27 116 56 220 161 570 44 150 106 394 112 442 2
23 6 46 9 50 3 5 10 44 16 88 40 295 34 636 -15 900 -31 167 -144 524 -194
612 -5 10 -40 81 -78 158 -75 153 -169 312 -277 470 -37 55 -86 127 -108 160
-22 33 -52 74 -66 91 -14 17 -33 41 -41 53 -15 23 -157 208 -207 270 -16 19
-52 65 -81 103 -29 37 -60 77 -70 87 -9 10 -39 47 -66 82 -27 35 -55 69 -61
74 -6 6 -31 37 -56 70 -24 32 -51 67 -59 76 -8 9 -23 27 -33 40 -39 53 -73 94
-99 122 -16 16 -28 31 -28 34 0 2 -24 37 -54 76 -50 67 -98 139 -171 254 -32
51 -105 199 -105 213 0 5 -9 24 -19 42 -21 36 -95 252 -106 308 -4 19 -11 40
-17 46 -5 7 -8 16 -6 20 1 5 -5 50 -14 99 -35 191 -43 283 -42 505 1 153 6
262 17 340 16 107 24 151 61 313 18 76 77 257 106 324 42 94 121 249 150 293
16 25 33 52 37 60 3 8 37 56 74 107 99 133 255 286 375 366 106 70 266 157
290 157 8 0 22 4 32 9 48 27 219 63 353 75 102 10 362 7 484 -4 119 -10 303
-43 375 -65 25 -8 77 -24 115 -36 72 -22 171 -62 260 -104 65 -32 189 -98 195
-105 3 -3 29 -21 58 -39 28 -18 52 -37 52 -42 0 -5 5 -9 10 -9 9 0 54 -30 105
-70 61 -49 255 -254 247 -262 -6 -6 -20 0 -36 17 -15 15 -33 24 -41 21 -9 -3
-12 0 -8 10 3 7 0 14 -5 14 -6 0 -17 6 -24 13 -40 40 -195 122 -317 167 -239
88 -529 97 -796 25 -33 -8 -69 -20 -80 -24 -11 -5 -47 -19 -80 -31 -63 -24
-256 -118 -265 -129 -3 -4 -29 -22 -59 -41 -56 -36 -57 -36 -166 -128 -108
-91 -232 -226 -291 -317 -10 -17 -27 -39 -36 -49 -10 -11 -18 -23 -18 -28 0
-4 -20 -42 -45 -84 -25 -41 -45 -80 -45 -85 0 -5 -4 -17 -10 -27 -41 -73 -96
-244 -130 -402 -19 -85 -25 -370 -10 -480 17 -129 74 -356 110 -435 5 -11 22
-51 39 -90 48 -113 157 -310 200 -361 5 -6 21 -30 36 -55 45 -71 194 -248 275
-326 63 -60 114 -104 220 -186 24 -19 103 -70 130 -85 83 -45 204 -104 260
-127 36 -14 74 -30 85 -34 37 -16 159 -51 230 -66 260 -58 593 -71 873 -35 84
11 157 22 162 25 5 3 30 8 57 11 95 11 507 131 618 179 17 8 64 28 105 45 102
44 437 211 480 241 20 13 58 35 85 49 28 14 52 28 55 32 3 4 34 25 68 48 127
82 283 200 472 359 71 59 341 329 401 401 25 30 72 86 103 123 32 38 55 74 52
82 -3 9 0 12 8 9 8 -3 29 19 54 58 50 77 99 150 110 163 4 6 19 31 32 58 13
26 27 47 32 47 4 0 8 9 8 20 0 11 3 20 8 20 4 0 23 33 42 73 19 39 37 74 40
77 21 20 131 306 164 425 31 109 35 129 50 215 37 217 56 434 56 654 0 166
-20 478 -31 492 -5 6 -7 18 -4 25 10 27 -57 436 -100 611 -43 172 -53 209 -80
303 -15 50 -31 107 -36 128 -5 21 -13 45 -18 55 -5 9 -21 55 -36 102 -34 105
-72 215 -91 257 -8 17 -14 34 -14 38 0 7 -72 182 -95 230 -24 51 -52 118 -66
158 -7 20 -16 37 -20 37 -4 0 -13 20 -20 44 -7 25 -17 42 -23 39 -5 -3 -6 -1
-3 4 7 10 -44 114 -70 144 -8 9 -13 20 -12 25 4 22 -2 35 -13 28 -6 -4 -8 -3
-4 4 3 6 -6 32 -21 59 -16 27 -37 66 -48 88 -23 47 -32 54 -56 50 -13 -3 -16
1 -12 13 4 10 8 12 11 4 2 -7 8 -10 13 -6 5 3 -3 25 -17 50 -38 64 -21 54 22
-13 468 -728 677 -1075 894 -1482 349 -655 576 -1275 685 -1874 139 -762 99
-1617 -102 -2206 -199 -584 -540 -1035 -1128 -1492 -188 -146 -355 -262 -785
-547 -586 -388 -772 -520 -1046 -738 -303 -242 -561 -494 -793 -773 -255 -307
-434 -587 -636 -996 -373 -752 -571 -1520 -625 -2425 -5 -85 -7 -290 -5 -455
21 -1439 462 -2951 1245 -4269 59 -99 110 -190 113 -201 12 -36 56 -417 73
-630 25 -291 25 -902 1 -1135 -30 -288 -84 -577 -217 -1165 -242 -1072 -334
-1626 -368 -2220 -13 -242 -7 -825 11 -1015 51 -524 138 -944 293 -1408 52
-156 177 -478 215 -554 11 -21 19 -39 19 -41 0 -3 -24 -7 -52 -11 -95 -12
-320 -76 -466 -132 -173 -67 -374 -159 -622 -285 -792 -404 -1940 -720 -3060
-844 -182 -20 -220 -19 -470 10 -685 81 -1400 238 -2030 446 -396 131 -607
219 -1037 432 -435 215 -714 322 -949 364 -52 9 -94 20 -94 25 0 4 27 70 59
146 267 624 424 1294 472 2015 17 257 6 853 -20 1117 -54 540 -126 960 -297
1725 -151 672 -179 804 -218 1035 -90 527 -95 1148 -15 1840 35 301 30 285
117 428 369 600 696 1333 908 2032 245 805 374 1632 374 2390 0 1027 -219
1977 -656 2840 -270 535 -607 988 -1030 1386 -333 314 -616 530 -1212 926
-662 439 -880 591 -1082 757 -146 119 -159 131 -299 266 -523 506 -816 1120
-896 1881 -48 460 -36 947 36 1379 132 796 419 1518 988 2483 214 363 657
1062 673 1062 5 0 2 -7 -6 -16z m31405 3 c-6 -8 -8 -16 -5 -19 3 -3 1 -9 -4
-12 -6 -3 -9 0 -8 6 2 16 15 38 23 38 3 0 0 -6 -6 -13z m-49789 -21 c4 3 9 1
12 -4 3 -6 -1 -9 -10 -8 -9 1 -21 11 -26 22 -9 18 -8 18 5 2 8 -10 16 -15 19
-12z m-41 -3 c13 -16 12 -17 -3 -4 -10 7 -18 15 -18 17 0 8 8 3 21 -13z
m31364 7 c3 -5 1 -10 -4 -10 -6 0 -11 5 -11 10 0 6 2 10 4 10 3 0 8 -4 11 -10z
m2056 -27 c13 -16 12 -17 -3 -4 -10 7 -18 15 -18 17 0 8 8 3 21 -13z m-1991
-24 c15 -28 5 -23 -15 7 -9 15 -12 23 -6 20 6 -4 16 -16 21 -27z m-31329 4
c13 -16 12 -17 -3 -4 -10 7 -18 15 -18 17 0 8 8 3 21 -13z m68 -50 c2 -1 -6
-1 -17 0 -12 0 -19 3 -17 6 3 2 -1 11 -7 20 -8 10 -3 8 12 -4 14 -11 27 -21
29 -22z m49516 7 c3 -5 1 -10 -4 -10 -6 0 -11 5 -11 10 0 6 2 10 4 10 3 0 8
-4 11 -10z m-31895 -33 c0 -2 -12 -14 -27 -28 l-28 -24 24 28 c23 25 31 32 31
24z m31850 -11 c-7 -7 -13 -7 -20 0 -6 6 -3 10 10 10 13 0 16 -4 10 -10z m-47
-42 c-10 -7 -22 -13 -28 -13 -5 0 -2 4 8 10 9 6 15 14 12 20 -3 5 1 6 10 3 14
-6 14 -8 -2 -20z m-49243 -35 c0 -14 -17 -10 -23 5 -4 10 -1 13 9 9 7 -3 14
-9 14 -14z m31785 3 c-3 -3 -11 0 -18 7 -9 10 -8 11 6 5 10 -3 15 -9 12 -12z
m-31749 -39 c-10 -11 -19 -7 -22 10 -2 15 0 16 12 6 8 -6 12 -14 10 -16z
m49089 8 c3 -5 2 -12 -3 -15 -5 -3 -9 1 -9 9 0 17 3 19 12 6z m-51346 -55 c-3
-3 -11 5 -18 17 -13 21 -12 21 5 5 10 -10 16 -20 13 -22z m53191 4 c0 -5 -5
-10 -11 -10 -5 0 -7 5 -4 10 3 6 8 10 11 10 2 0 4 -4 4 -10z m-50840 -14 c0
-2 -7 -7 -16 -10 -8 -3 -12 -2 -9 4 6 10 25 14 25 6z m50800 -26 c0 -5 -5 -10
-11 -10 -5 0 -7 5 -4 10 3 6 8 10 11 10 2 0 4 -4 4 -10z m-50725 -9 c3 -5 2
-12 -3 -15 -5 -3 -9 1 -9 9 0 17 3 19 12 6z m50685 -31 c0 -5 -5 -10 -11 -10
-5 0 -7 5 -4 10 3 6 8 10 11 10 2 0 4 -4 4 -10z m-1993 -25 c0 -8 -4 -12 -8
-9 -5 3 -17 0 -27 -5 -14 -7 -19 -6 -19 4 0 8 4 12 9 9 4 -3 16 0 25 5 10 6
18 11 19 11 0 0 1 -7 1 -15z m-48572 -23 c-3 -3 -11 0 -18 7 -9 10 -8 11 6 5
10 -3 15 -9 12 -12z m50525 8 c0 -5 -5 -10 -11 -10 -5 0 -7 5 -4 10 3 6 8 10
11 10 2 0 4 -4 4 -10z m-18829 -27 c13 -16 12 -17 -3 -4 -10 7 -18 15 -18 17
0 8 8 3 21 -13z m17589 3 c0 -2 -8 -10 -17 -17 -16 -13 -17 -12 -4 4 13 16 21
21 21 13z m-49235 -16 c-3 -5 -12 -10 -18 -10 -7 0 -6 4 3 10 19 12 23 12 15
0z m48390 0 c-3 -5 -12 -10 -18 -10 -7 0 -6 4 3 10 19 12 23 12 15 0z m-48368
-24 c0 -8 -6 -12 -15 -9 -11 5 -11 7 0 14 7 5 13 9 14 9 0 0 1 -6 1 -14z
m48238 -56 c3 -5 1 -10 -4 -10 -6 0 -11 5 -11 10 0 6 2 10 4 10 3 0 8 -4 11
-10z m2095 -4 c0 -3 -4 -8 -10 -11 -5 -3 -10 -1 -10 4 0 6 5 11 10 11 6 0 10
-2 10 -4z m-2108 -23 c-10 -4 -10 -8 0 -21 12 -15 11 -16 -4 -4 -9 8 -23 11
-30 7 -7 -4 -4 1 6 9 11 9 25 16 30 15 6 0 5 -3 -2 -6z m858 -27 c0 -2 -8 -10
-17 -17 -16 -13 -17 -12 -4 4 13 16 21 21 21 13z m-48790 -40 c0 -2 -6 -9 -14
-15 -11 -9 -16 -9 -22 0 -4 7 -3 9 4 5 6 -3 13 -2 17 4 6 10 15 14 15 6z
m49900 -30 c0 -2 -8 -10 -17 -17 -16 -13 -17 -12 -4 4 13 16 21 21 21 13z
m-52482 -52 c-4 -3 -12 5 -18 18 -12 22 -12 22 6 6 10 -10 15 -20 12 -24z
m2683 19 c13 -16 12 -17 -3 -4 -10 7 -18 15 -18 17 0 8 8 3 21 -13z m49759 -7
c0 -2 -8 -10 -17 -17 -16 -13 -17 -12 -4 4 13 16 21 21 21 13z m-2249 -33 c13
-16 12 -17 -3 -4 -10 7 -18 15 -18 17 0 8 8 3 21 -13z m-33031 -8 c-7 -8 -17
-15 -23 -15 -6 0 -2 7 9 15 25 19 30 19 14 0z m-14300 -51 c0 -7 -58 25 -65
36 -3 5 10 1 29 -11 20 -12 36 -23 36 -25z m31431 -11 c13 -16 12 -17 -3 -4
-10 7 -18 15 -18 17 0 8 8 3 21 -13z m15736 -8 c0 -8 -4 -12 -9 -9 -5 3 -6 10
-3 15 9 13 12 11 12 -6z m2293 1 c0 -2 -8 -10 -17 -17 -16 -13 -17 -12 -4 4
13 16 21 21 21 13z m490 -32 c0 -8 -19 -13 -24 -6 -3 5 1 9 9 9 8 0 15 -2 15
-3z m-2898 -21 c-6 -2 -10 -9 -7 -13 3 -5 1 -11 -4 -14 -7 -5 -8 11 -2 32 1 1
7 2 14 1 9 0 9 -2 -1 -6z m-46937 -31 c-3 -3 -11 0 -18 7 -9 10 -8 11 6 5 10
-3 15 -9 12 -12z m46815 -37 c-7 -9 -15 -13 -19 -10 -3 3 1 10 9 15 21 14 24
12 10 -5z m-32850 -9 c0 -2 -8 -10 -17 -17 -16 -13 -17 -12 -4 4 13 16 21 21
21 13z m-13743 -41 c0 -8 -4 -12 -9 -9 -5 3 -6 10 -3 15 9 13 12 11 12 -6z
m46468 -35 c1 -10 -2 -17 -6 -14 -4 2 -7 13 -6 24 2 23 10 17 12 -10z m-49404
3 c13 -16 12 -17 -3 -4 -10 7 -18 15 -18 17 0 8 8 3 21 -13z m51819 -7 c0 -2
-8 -10 -17 -17 -16 -13 -17 -12 -4 4 13 16 21 21 21 13z m-35240 -20 c0 -2 -8
-10 -17 -17 -16 -13 -17 -12 -4 4 13 16 21 21 21 13z m32717 -10 c0 -8 -6 -12
-15 -9 -11 5 -11 7 0 14 7 5 13 9 14 9 0 0 1 -6 1 -14z m-49182 -46 c3 -5 1
-10 -4 -10 -6 0 -11 5 -11 10 0 6 2 10 4 10 3 0 8 -4 11 -10z m3100 -28 c-3
-3 -11 0 -18 7 -9 10 -8 11 6 5 10 -3 15 -9 12 -12z m33690 8 c3 -5 1 -10 -4
-10 -6 0 -11 5 -11 10 0 6 2 10 4 10 3 0 8 -4 11 -10z m12292 -6 c-3 -3 -12
-4 -19 -1 -8 3 -5 6 6 6 11 1 17 -2 13 -5z m-52 -24 c-3 -5 -12 -10 -18 -10
-7 0 -6 4 3 10 19 12 23 12 15 0z m-45735 -46 c0 -2 -9 0 -20 6 -11 6 -20 13
-20 16 0 2 9 0 20 -6 11 -6 20 -13 20 -16z m48700 -138 c0 -2 -8 -10 -17 -17
-16 -13 -17 -12 -4 4 13 16 21 21 21 13z m-48344 -48 c-10 -6 -22 -6 -26 -2
-5 5 3 10 18 11 22 1 24 0 8 -9z m109 -8 c3 -6 -1 -7 -9 -4 -18 7 -21 14 -7
14 6 0 13 -4 16 -10z m84 -36 c14 -12 -19 -1 -35 12 -18 14 -18 14 6 3 14 -6
27 -13 29 -15z m33382 -11 c13 -16 12 -17 -3 -4 -10 7 -18 15 -18 17 0 8 8 3
21 -13z m11104 -33 c3 -6 -1 -7 -9 -4 -18 7 -21 14 -7 14 6 0 13 -4 16 -10z
m-47254 -47 c13 -16 12 -17 -3 -4 -17 13 -22 21 -14 21 2 0 10 -8 17 -17z
m13749 -17 c0 -2 -8 -10 -17 -17 -16 -13 -17 -12 -4 4 13 16 21 21 21 13z
m33250 0 c0 -2 -8 -10 -17 -17 -16 -13 -17 -12 -4 4 13 16 21 21 21 13z
m-29113 -38 c-3 -7 -5 -2 -5 12 0 14 2 19 5 13 2 -7 2 -19 0 -25z m-18557 2
c0 -5 -2 -10 -4 -10 -3 0 -8 5 -11 10 -3 6 -1 10 4 10 6 0 11 -4 11 -10z
m47560 0 c0 -14 -51 -33 -61 -23 -4 4 4 9 19 10 14 0 28 6 30 12 5 14 12 14
12 1z m-43725 -18 c-3 -3 -11 0 -18 7 -9 10 -8 11 6 5 10 -3 15 -9 12 -12z
m46780 8 c-3 -5 -12 -10 -18 -10 -7 0 -6 4 3 10 19 12 23 12 15 0z m-50570
-30 c3 -5 1 -10 -4 -10 -6 0 -11 5 -11 10 0 6 2 10 4 10 3 0 8 -4 11 -10z
m3826 3 c-10 -4 -10 -7 -1 -13 8 -5 6 -9 -6 -14 -10 -4 -15 -4 -11 0 4 4 3 12
-3 18 -6 8 -2 12 13 13 12 0 16 -1 8 -4z m-76 -21 c-3 -3 -11 0 -18 7 -9 10
-8 11 6 5 10 -3 15 -9 12 -12z m10525 4 c0 -2 -7 -7 -16 -10 -8 -3 -12 -2 -9
4 6 10 25 14 25 6z m1253 -61 c-3 -9 -8 -14 -10 -11 -3 3 -2 9 2 15 9 16 15
13 8 -4z m-15448 -5 c3 -5 1 -10 -4 -10 -6 0 -11 5 -11 10 0 6 2 10 4 10 3 0
8 -4 11 -10z m30 -40 c10 -11 16 -20 13 -20 -3 0 -13 9 -23 20 -10 11 -16 20
-13 20 3 0 13 -9 23 -20z m4125 -4 c0 -2 -7 -7 -16 -10 -8 -3 -12 -2 -9 4 6
10 25 14 25 6z m45100 -31 c0 -2 -10 -9 -22 -15 -22 -11 -22 -10 -4 4 21 17
26 19 26 11z m-12155 -15 c3 -5 1 -10 -4 -10 -6 0 -11 5 -11 10 0 6 2 10 4 10
3 0 8 -4 11 -10z m12105 -25 c0 -2 -10 -9 -22 -15 -22 -11 -22 -10 -4 4 21 17
26 19 26 11z m-33833 -47 c-3 -8 -6 -5 -6 6 -1 11 2 17 5 13 3 -3 4 -12 1 -19z
m34753 18 c0 -2 -8 -10 -17 -17 -16 -13 -17 -12 -4 4 13 16 21 21 21 13z
m-45465 -66 c3 -5 1 -10 -4 -10 -6 0 -11 5 -11 10 0 6 2 10 4 10 3 0 8 -4 11
-10z m41710 -39 c-10 -9 -64 -7 -58 2 3 5 16 6 30 2 18 -4 23 -2 17 6 -5 8 -3
9 5 5 7 -5 9 -11 6 -15z m-29805 -25 c0 -2 -8 -10 -17 -17 -16 -13 -17 -12 -4
4 13 16 21 21 21 13z m-11636 -18 c-3 -4 -11 -5 -19 -1 -21 7 -19 12 4 10 11
0 18 -5 15 -9z m-3673 -35 c13 -16 12 -17 -3 -4 -10 7 -18 15 -18 17 0 8 8 3
21 -13z m3929 -33 c0 -5 -5 -10 -11 -10 -5 0 -7 5 -4 10 3 6 8 10 11 10 2 0 4
-4 4 -10z m7 -26 c-3 -3 -12 -4 -19 -1 -8 3 -5 6 6 6 11 1 17 -2 13 -5z m48
-14 c3 -6 -1 -7 -9 -4 -18 7 -21 14 -7 14 6 0 13 -4 16 -10z m335 -64 c0 -2
-9 -6 -20 -9 -11 -3 -18 -1 -14 4 5 9 34 13 34 5z m117 -42 c-3 -3 -12 -4 -19
-1 -8 3 -5 6 6 6 11 1 17 -2 13 -5z m29138 -24 c3 -5 1 -10 -4 -10 -6 0 -11 5
-11 10 0 6 2 10 4 10 3 0 8 -4 11 -10z m10420 1 c3 -5 0 -13 -6 -17 -7 -4 -9
-3 -5 4 3 5 0 13 -6 15 -9 4 -10 6 -1 6 6 1 14 -3 18 -8z m-39388 -17 c-3 -3
-12 -4 -19 -1 -8 3 -5 6 6 6 11 1 17 -2 13 -5z m39200 -20 c-3 -3 -12 -4 -19
-1 -8 3 -5 6 6 6 11 1 17 -2 13 -5z m-170 -40 c-3 -3 -12 -4 -19 -1 -8 3 -5 6
6 6 11 1 17 -2 13 -5z m3668 -4 c-3 -5 -12 -10 -18 -10 -7 0 -6 4 3 10 19 12
23 12 15 0z m-12654 -23 c-10 -9 -11 -8 -5 6 3 10 9 15 12 12 3 -3 0 -11 -7
-18z m-29674 7 c-3 -3 -12 -4 -19 -1 -8 3 -5 6 6 6 11 1 17 -2 13 -5z m188
-14 c3 -5 2 -10 -4 -10 -5 0 -13 5 -16 10 -3 6 -2 10 4 10 5 0 13 -4 16 -10z
m242 -66 c-3 -3 -12 -4 -19 -1 -8 3 -5 6 6 6 11 1 17 -2 13 -5z m43628 -54
c-3 -5 -12 -10 -18 -10 -7 0 -6 4 3 10 19 12 23 12 15 0z m-49450 -10 c3 -6
-1 -7 -9 -4 -18 7 -21 14 -7 14 6 0 13 -4 16 -10z m1180 -28 c-3 -3 -11 0 -18
7 -9 10 -8 11 6 5 10 -3 15 -9 12 -12z m-1050 -82 c3 -6 -1 -7 -9 -4 -18 7
-21 14 -7 14 6 0 13 -4 16 -10z m47950 -10 c-3 -5 -12 -10 -18 -10 -7 0 -6 4
3 10 19 12 23 12 15 0z m-5368 -6 c-3 -3 -12 -4 -19 -1 -8 3 -5 6 6 6 11 1 17
-2 13 -5z m-30317 -34 c0 -5 -5 -10 -11 -10 -5 0 -7 5 -4 10 3 6 8 10 11 10 2
0 4 -4 4 -10z m-10175 -20 c3 -6 -1 -7 -9 -4 -18 7 -21 14 -7 14 6 0 13 -4 16
-10z m45710 -20 c-3 -5 -12 -10 -18 -10 -7 0 -6 4 3 10 19 12 23 12 15 0z
m-47540 -118 c-3 -3 -11 0 -18 7 -9 10 -8 11 6 5 10 -3 15 -9 12 -12z m21212
-48 c-3 -3 -12 -4 -19 -1 -8 3 -5 6 6 6 11 1 17 -2 13 -5z m15647 -70 c3 -8 2
-12 -4 -9 -6 3 -10 10 -10 16 0 14 7 11 14 -7z m9106 -258 c0 -2 -7 -7 -16
-10 -8 -3 -12 -2 -9 4 6 10 25 14 25 6z m-43705 -66 c3 -6 -1 -7 -9 -4 -18 7
-21 14 -7 14 6 0 13 -4 16 -10z m18840 -18 c215 -36 469 -172 633 -338 23 -24
47 -44 52 -44 6 0 10 -5 10 -11 0 -6 17 -32 39 -58 52 -63 156 -238 172 -289
7 -23 16 -42 21 -42 5 0 8 -6 6 -12 -2 -7 3 -31 9 -53 45 -146 48 -167 48
-375 0 -139 -4 -224 -14 -265 -19 -83 -57 -199 -87 -265 -24 -51 -110 -199
-124 -210 -3 -3 -21 -25 -40 -50 -160 -208 -426 -374 -694 -432 -136 -30 -431
-33 -545 -5 -91 22 -223 67 -281 97 -45 22 -156 87 -175 102 -91 71 -136 110
-174 151 -25 28 -53 58 -63 68 -31 33 -118 162 -118 176 0 7 -4 13 -9 13 -8 0
-42 70 -80 168 -97 247 -107 548 -29 817 22 75 119 279 159 335 13 19 31 43
39 54 18 26 197 205 226 227 158 122 320 196 524 240 69 14 118 17 260 14 96
-2 202 -8 235 -13z m6960 -6 c82 -20 196 -56 210 -66 6 -4 26 -12 45 -19 38
-13 173 -91 178 -103 2 -5 8 -8 14 -8 26 0 190 -154 262 -245 25 -33 50 -65
55 -71 16 -20 104 -178 119 -214 31 -75 75 -237 88 -330 11 -79 6 -259 -11
-370 -32 -217 -149 -474 -274 -601 -9 -9 -37 -38 -62 -65 -25 -27 -72 -72
-105 -99 -32 -28 -60 -53 -62 -57 -2 -5 -7 -8 -12 -8 -4 0 -41 -20 -81 -44
-63 -38 -105 -57 -224 -102 -11 -4 -24 -8 -30 -10 -5 -1 -36 -9 -68 -18 -154
-41 -428 -47 -582 -12 -221 49 -423 156 -575 303 -41 40 -77 74 -80 75 -3 2
-22 23 -41 48 -130 162 -205 317 -256 530 -26 109 -26 422 1 535 20 87 55 193
80 240 9 17 16 34 16 39 0 14 70 125 126 201 48 65 160 181 229 237 108 88
301 182 445 218 47 12 96 25 110 30 47 15 408 5 485 -14z m-25160 -16 c3 -6
-1 -7 -9 -4 -18 7 -21 14 -7 14 6 0 13 -4 16 -10z m-395 -39 c0 -6 -4 -12 -8
-15 -5 -3 -9 1 -9 9 0 8 4 15 9 15 4 0 8 -4 8 -9z m5930 -5 c0 -2 -7 -7 -16
-10 -8 -3 -12 -2 -9 4 6 10 25 14 25 6z m27024 -24 c3 -5 -1 -9 -9 -9 -8 0
-12 4 -9 9 3 4 7 8 9 8 2 0 6 -4 9 -8z m12416 -6 c0 -2 -8 -10 -17 -17 -16
-13 -17 -12 -4 4 13 16 21 21 21 13z m-13426 -102 c3 -8 2 -12 -4 -9 -6 3 -10
10 -10 16 0 14 7 11 14 -7z m-23048 -112 c-18 -16 -18 -16 -6 6 6 13 14 21 18
18 3 -4 -2 -14 -12 -24z m1141 -68 c-3 -3 -12 -4 -19 -1 -8 3 -5 6 6 6 11 1
17 -2 13 -5z m26903 -158 c0 -2 -7 -7 -16 -10 -8 -3 -12 -2 -9 4 6 10 25 14
25 6z m-229 -169 c-6 -8 -7 -18 -3 -22 4 -5 1 -5 -6 -1 -10 6 -10 11 -1 22 6
8 14 14 16 14 3 0 0 -6 -6 -13z m-29731 -77 c0 -5 -2 -10 -4 -10 -3 0 -8 5
-11 10 -3 6 -1 10 4 10 6 0 11 -4 11 -10z m-7470 -40 c8 -5 11 -10 5 -10 -5 0
-17 5 -25 10 -8 5 -10 10 -5 10 6 0 17 -5 25 -10z m35405 -40 c3 -6 -1 -7 -9
-4 -18 7 -21 14 -7 14 6 0 13 -4 16 -10z m-27750 -50 c3 -5 1 -10 -4 -10 -6 0
-11 5 -11 10 0 6 2 10 4 10 3 0 8 -4 11 -10z m72 -737 c-3 -10 -5 -4 -5 12 0
17 2 24 5 18 2 -7 2 -21 0 -30z m-10 -105 c-3 -7 -5 -2 -5 12 0 14 2 19 5 13
2 -7 2 -19 0 -25z m12194 -161 c-10 -9 -11 -8 -5 6 3 10 9 15 12 12 3 -3 0
-11 -7 -18z m17054 -187 c3 -6 -1 -7 -9 -4 -18 7 -21 14 -7 14 6 0 13 -4 16
-10z m362 -106 c-3 -3 -12 -4 -19 -1 -8 3 -5 6 6 6 11 1 17 -2 13 -5z m-32390
-10 c-3 -3 -12 -4 -19 -1 -8 3 -5 6 6 6 11 1 17 -2 13 -5z m22040 -840 c-3 -3
-12 -4 -19 -1 -8 3 -5 6 6 6 11 1 17 -2 13 -5z m-8980 -80 c-3 -3 -12 -4 -19
-1 -8 3 -5 6 6 6 11 1 17 -2 13 -5z m13830 -1029 c0 -8 -5 -15 -10 -15 -5 0
-7 -7 -3 -15 3 -8 0 -20 -7 -27 -18 -19 -67 -122 -67 -141 0 -8 -4 -17 -8 -19
-4 -1 -23 -34 -41 -73 -19 -38 -55 -108 -81 -155 -26 -47 -57 -103 -70 -125
-36 -65 -84 -140 -92 -143 -5 -2 -8 -8 -8 -14 0 -9 -135 -216 -149 -228 -4 -3
-19 -25 -35 -50 -30 -45 -107 -148 -155 -206 -14 -17 -35 -42 -45 -55 -123
-154 -464 -511 -609 -638 -34 -30 -91 -79 -126 -110 -36 -31 -83 -72 -105 -91
-65 -57 -194 -160 -286 -230 -47 -36 -92 -70 -100 -77 -32 -25 -238 -178 -300
-221 -36 -26 -67 -49 -70 -52 -3 -3 -25 -19 -50 -35 -51 -35 -76 -53 -102 -77
-10 -10 -20 -18 -23 -18 -3 0 -33 -19 -66 -42 -33 -24 -68 -47 -77 -53 -10 -5
-19 -13 -22 -16 -5 -6 -121 -87 -149 -104 -9 -5 -18 -12 -21 -15 -3 -3 -50
-39 -105 -79 -55 -41 -101 -78 -103 -83 -2 -4 -8 -8 -14 -8 -12 0 -51 -29
-236 -177 -84 -68 -154 -123 -156 -123 -2 0 -19 -15 -38 -32 -19 -18 -69 -64
-113 -103 -172 -153 -310 -301 -442 -475 -40 -52 -76 -99 -81 -105 -64 -84
-199 -335 -257 -479 -15 -38 -31 -77 -35 -85 -5 -9 -22 -68 -40 -131 -17 -63
-35 -131 -40 -150 -51 -186 -77 -536 -61 -805 12 -194 48 -474 63 -492 5 -7 7
-16 4 -22 -3 -5 5 -62 19 -128 14 -65 31 -143 36 -173 14 -72 24 -80 39 -34
19 55 105 227 153 303 75 118 175 252 280 376 70 81 397 408 476 475 35 30 69
60 75 65 6 6 31 26 56 45 25 19 59 47 75 61 35 32 193 149 200 149 4 0 96 61
105 70 7 7 36 24 85 51 22 11 42 24 45 28 3 3 39 23 80 43 111 56 180 95 176
99 -3 2 8 5 22 6 15 0 28 6 30 12 2 6 8 11 14 11 5 0 56 22 111 49 56 26 127
59 157 71 30 13 87 38 127 57 40 18 77 33 82 33 6 0 41 16 80 35 38 19 74 35
81 35 6 0 25 8 43 17 46 24 190 83 205 83 6 0 12 5 12 10 0 6 5 10 11 10 6 0
41 14 78 31 36 17 80 37 96 44 231 106 578 280 644 323 34 22 55 35 121 73 82
48 230 151 230 161 0 4 5 8 11 8 15 0 195 139 265 205 111 105 147 142 224
232 50 56 102 121 116 143 15 22 31 40 35 40 5 0 9 4 9 10 0 11 58 109 76 127
11 11 123 235 157 313 8 19 27 71 42 115 15 44 31 89 36 100 25 55 90 328 110
465 19 127 23 196 23 385 0 139 -5 262 -12 310 -7 44 -15 98 -17 120 -6 54
-16 98 -24 110 -4 6 -8 24 -9 40 -1 17 -9 55 -17 85 -9 30 -17 64 -19 76 -5
33 -50 159 -59 162 -4 2 -5 8 -2 13 3 4 -4 31 -16 59 -12 28 -20 53 -17 55 3
3 23 -36 46 -87 242 -552 387 -1150 448 -1845 21 -239 24 -782 6 -938 -75
-645 -274 -1106 -644 -1490 -220 -229 -464 -403 -804 -573 -313 -157 -557
-247 -1279 -473 -758 -238 -995 -330 -1295 -502 -536 -308 -1024 -738 -1432
-1262 -128 -164 -311 -444 -364 -557 -10 -21 -20 -38 -23 -38 -8 0 -33 44 -96
170 -145 287 -266 686 -331 1087 -21 137 -30 634 -15 840 53 688 224 1325 516
1918 52 105 124 242 162 305 64 108 83 130 298 345 478 479 1021 937 1935
1632 74 57 207 158 295 225 261 198 641 494 774 602 611 496 1039 921 1320
1309 30 42 56 77 57 77 0 0 1 -7 1 -15z m-18952 -105 c267 -360 682 -769 1260
-1241 105 -85 217 -176 250 -201 263 -203 514 -396 680 -523 1136 -867 1545
-1209 2081 -1737 235 -232 242 -241 318 -367 369 -620 611 -1394 676 -2168 13
-156 13 -658 1 -788 -31 -313 -141 -733 -277 -1055 -54 -128 -147 -306 -160
-303 -5 0 -20 21 -33 45 -411 759 -1187 1510 -1961 1898 -235 117 -469 203
-1063 390 -739 231 -956 310 -1263 455 -850 403 -1325 984 -1478 1807 -47 253
-56 367 -56 701 -1 675 87 1275 274 1867 55 172 144 407 191 505 36 74 39 45
4 -33 -11 -24 -17 -47 -14 -52 3 -5 1 -11 -4 -14 -7 -5 -35 -100 -34 -116 1
-3 -5 -21 -12 -40 -7 -19 -16 -51 -20 -70 -10 -55 -15 -78 -35 -185 -24 -129
-44 -389 -37 -490 3 -44 7 -114 10 -155 7 -116 29 -260 38 -255 4 3 11 0 15
-6 4 -8 3 -9 -4 -5 -7 4 -12 1 -12 -6 1 -20 36 -178 53 -233 8 -27 24 -81 36
-120 11 -38 25 -79 30 -90 5 -11 21 -54 36 -95 29 -81 100 -226 158 -328 21
-35 37 -68 37 -73 0 -5 4 -9 8 -9 4 0 16 -14 26 -30 46 -79 268 -350 304 -374
8 -4 23 -19 35 -32 11 -13 27 -24 34 -24 7 0 13 -6 14 -12 0 -7 43 -48 94 -92
98 -82 134 -109 275 -203 47 -31 87 -59 90 -63 14 -16 62 -40 71 -35 5 4 8 1
7 -5 -2 -6 27 -28 64 -48 211 -117 269 -146 423 -221 173 -84 204 -99 310
-146 33 -15 87 -40 120 -55 33 -15 92 -40 130 -56 39 -16 72 -32 73 -36 2 -5
10 -8 17 -8 8 0 29 -6 47 -14 18 -8 51 -22 73 -31 22 -10 68 -30 101 -46 34
-16 66 -29 71 -29 4 0 26 -9 47 -20 21 -12 61 -30 89 -41 79 -31 424 -196 437
-209 3 -3 27 -16 55 -30 51 -26 202 -113 220 -128 6 -4 31 -20 57 -35 26 -15
53 -33 60 -40 7 -7 30 -23 52 -36 21 -13 49 -33 61 -45 35 -32 57 -49 95 -76
19 -13 40 -29 46 -35 6 -5 33 -28 60 -50 231 -191 533 -497 669 -678 86 -114
128 -174 138 -194 6 -13 14 -23 19 -23 4 0 8 -6 8 -13 0 -7 9 -23 20 -35 11
-12 20 -24 20 -28 0 -4 18 -38 39 -75 22 -37 52 -102 67 -143 29 -77 44 -95
44 -53 0 12 7 44 15 71 8 28 20 77 26 110 11 65 25 138 32 171 7 32 17 96 22
140 2 22 9 69 14 105 17 108 26 274 26 475 0 188 -20 429 -37 451 -5 7 -8 16
-6 20 5 19 -61 316 -73 324 -3 3 -10 20 -14 39 -4 18 -18 59 -31 90 -14 31
-28 65 -33 76 -24 57 -130 265 -155 304 -65 102 -81 126 -88 129 -5 2 -8 8 -8
13 0 33 -321 408 -426 498 -35 30 -214 190 -232 208 -8 7 -30 26 -50 41 -21
15 -42 32 -48 37 -6 6 -26 21 -44 35 -18 14 -38 30 -44 35 -6 6 -38 30 -71 55
-33 24 -74 56 -91 70 -17 14 -41 32 -54 40 -12 8 -28 20 -34 25 -6 6 -24 19
-41 29 -16 11 -34 23 -40 28 -5 5 -55 41 -110 80 -55 40 -102 75 -105 78 -3 3
-27 21 -55 40 -27 19 -51 38 -53 42 -2 4 -8 8 -13 8 -10 0 -93 56 -124 83 -11
10 -36 28 -55 40 -19 12 -42 27 -50 34 -8 6 -58 42 -110 79 -52 37 -97 70
-100 73 -3 3 -27 22 -55 40 -27 19 -52 38 -55 41 -3 3 -50 39 -105 80 -55 41
-105 80 -111 85 -6 6 -26 21 -44 35 -18 14 -38 30 -44 35 -6 6 -32 26 -57 45
-67 51 -148 121 -344 295 -105 93 -362 351 -461 462 -112 125 -232 271 -279
338 -11 15 -32 42 -47 60 -16 18 -28 36 -28 39 0 6 -7 16 -36 49 -5 7 -13 19
-17 27 -8 18 -30 53 -37 60 -30 29 -230 352 -230 370 0 6 -4 10 -10 10 -5 0
-10 4 -10 9 0 4 -17 39 -38 77 -21 38 -53 104 -72 147 -18 42 -37 77 -42 77
-4 0 -8 7 -8 15 0 29 -40 96 -53 89 -9 -5 -9 -4 0 6 9 10 9 19 -3 41 -16 32
-27 39 -17 12 5 -14 3 -15 -7 -6 -12 11 -5 37 10 31 4 -2 43 -50 85 -108z
m-108 51 c0 -11 -5 -18 -9 -15 -4 3 -5 11 -1 19 7 21 12 19 10 -4z m66 -64 c3
-8 -1 -14 -8 -14 -7 0 -11 6 -8 14 3 7 6 13 8 13 2 0 5 -6 8 -13z m19072 -7
c-3 -5 -12 -10 -18 -10 -7 0 -6 4 3 10 19 12 23 12 15 0z m-19275 -240 c0 -5
-5 -10 -11 -10 -5 0 -7 5 -4 10 3 6 8 10 11 10 2 0 4 -4 4 -10z m19444 -16 c3
-8 2 -12 -4 -9 -6 3 -10 10 -10 16 0 14 7 11 14 -7z m-19559 -84 c-3 -5 -12
-10 -18 -10 -7 0 -6 4 3 10 19 12 23 12 15 0z m-42 -85 c-9 -16 -10 -16 -16
-1 -5 12 -3 15 5 10 8 -5 9 -1 4 12 -5 14 -4 16 4 7 8 -7 9 -17 3 -28z m-33
-33 c0 -5 -7 -17 -15 -28 -14 -18 -14 -17 -4 9 12 27 19 34 19 19z m19760 -25
c0 -2 -10 -12 -22 -23 l-23 -19 19 23 c18 21 26 27 26 19z m35 -77 c9 -16 13
-30 11 -30 -3 0 -12 14 -21 30 -9 17 -13 30 -11 30 3 0 12 -13 21 -30z
m-19849 -9 c0 -11 -3 -18 -7 -15 -4 2 -9 -6 -12 -18 -4 -12 -9 -19 -12 -16 -6
5 21 68 28 68 2 0 3 -9 3 -19z m-4 -66 c-2 -14 -8 -28 -13 -31 -5 -3 -7 2 -4
10 3 9 7 23 10 31 7 24 13 17 7 -10z m-75 -1707 c-3 -8 -6 -5 -6 6 -1 11 2 17
5 13 3 -3 4 -12 1 -19z m26300 -634 c-3 -3 -12 -4 -19 -1 -8 3 -5 6 6 6 11 1
17 -2 13 -5z m-527 -204 c-8 -5 -19 -10 -25 -10 -5 0 -3 5 5 10 8 5 20 10 25
10 6 0 3 -5 -5 -10z m-295 -190 c3 -6 -1 -7 -9 -4 -18 7 -21 14 -7 14 6 0 13
-4 16 -10z m-32368 -276 c-3 -3 -12 -4 -19 -1 -8 3 -5 6 6 6 11 1 17 -2 13 -5z
m1834 -111 c13 -16 12 -17 -3 -4 -17 13 -22 21 -14 21 2 0 10 -8 17 -17z
m-2151 -67 c0 -2 -8 -10 -17 -17 -16 -13 -17 -12 -4 4 13 16 21 21 21 13z
m34494 -72 c3 -8 2 -12 -4 -9 -6 3 -10 10 -10 16 0 14 7 11 14 -7z m-1291 -89
c-3 -9 -8 -14 -10 -11 -3 3 -2 9 2 15 9 16 15 13 8 -4z m7162 -13 c-3 -3 -11
0 -18 7 -9 10 -8 11 6 5 10 -3 15 -9 12 -12z m-39810 -2 c-3 -5 -12 -10 -18
-10 -7 0 -6 4 3 10 19 12 23 12 15 0z m39925 -56 c0 -2 -13 2 -30 11 -16 9
-30 18 -30 21 0 2 14 -2 30 -11 17 -9 30 -18 30 -21z m-7215 6 c-3 -5 -12 -10
-18 -10 -7 0 -6 4 3 10 19 12 23 12 15 0z m-39320 -28 c-3 -3 -11 0 -18 7 -9
10 -8 11 6 5 10 -3 15 -9 12 -12z m39266 -15 c-10 -9 -11 -8 -5 6 3 10 9 15
12 12 3 -3 0 -11 -7 -18z m-39311 -2 c0 -2 -6 -5 -13 -8 -8 -3 -14 1 -14 8 0
7 6 11 14 8 7 -3 13 -6 13 -8z m35 -3 c-3 -3 -11 0 -18 7 -9 10 -8 11 6 5 10
-3 15 -9 12 -12z m7309 -10 c2 -4 0 -14 -6 -22 -8 -12 -9 -12 -5 2 3 9 1 19
-6 22 -9 3 -9 5 0 5 6 1 14 -3 17 -7z m-7463 -39 c13 -16 12 -17 -3 -4 -10 7
-18 15 -18 17 0 8 8 3 21 -13z m46874 7 c3 -6 -1 -7 -9 -4 -18 7 -21 14 -7 14
6 0 13 -4 16 -10z m-39415 -30 c-6 -11 -13 -20 -16 -20 -2 0 0 9 6 20 6 11 13
20 16 20 2 0 0 -9 -6 -20z m39218 -39 c11 -6 10 -10 -4 -15 -9 -3 -19 -4 -22
-1 -3 3 1 5 9 5 11 0 11 2 -1 10 -8 5 -10 10 -5 10 6 0 16 -4 23 -9z m-46443
-31 c3 -6 -1 -7 -9 -4 -18 7 -21 14 -7 14 6 0 13 -4 16 -10z m375 -144 c0 -2
-7 -7 -16 -10 -8 -3 -12 -2 -9 4 6 10 25 14 25 6z m45597 -52 c-3 -3 -12 -4
-19 -1 -8 3 -5 6 6 6 11 1 17 -2 13 -5z m-105 -11 c-6 -2 -10 -9 -7 -13 3 -5
1 -11 -4 -14 -7 -5 -8 11 -2 32 1 1 7 2 14 1 9 0 9 -2 -1 -6z m-45217 -83 c-3
-5 -12 -10 -18 -10 -7 0 -6 4 3 10 19 12 23 12 15 0z m120 -70 c3 -6 -1 -7 -9
-4 -18 7 -21 14 -7 14 6 0 13 -4 16 -10z m44755 -44 c0 -2 -8 -10 -17 -17 -16
-13 -17 -12 -4 4 13 16 21 21 21 13z m-44530 -40 c0 -2 -7 -7 -16 -10 -8 -3
-12 -2 -9 4 6 10 25 14 25 6z m44430 -20 c0 -2 -7 -7 -16 -10 -8 -3 -12 -2 -9
4 6 10 25 14 25 6z m-44388 -21 c0 -5 -5 -10 -11 -11 -8 -2 -7 -1 0 3 8 4 7 8
-2 15 -11 8 -11 9 -1 6 8 -2 14 -8 14 -13z m44316 -9 c-7 -8 -15 -12 -17 -11
-5 6 10 25 20 25 5 0 4 -6 -3 -14z m-44193 -36 c-3 -5 -12 -10 -18 -10 -7 0
-6 4 3 10 19 12 23 12 15 0z m44155 6 c0 -2 -7 -7 -16 -10 -8 -3 -12 -2 -9 4
6 10 25 14 25 6z m-240 -80 c0 -2 -7 -7 -16 -10 -8 -3 -12 -2 -9 4 6 10 25 14
25 6z m15 -16 c-3 -5 -12 -10 -18 -10 -7 0 -6 4 3 10 19 12 23 12 15 0z m35
-4 c0 -2 -7 -7 -16 -10 -8 -3 -12 -2 -9 4 6 10 25 14 25 6z m-140 -61 c-14 -8
-19 -14 -11 -15 8 0 12 -3 8 -6 -3 -3 -11 -3 -18 2 -9 5 -7 11 6 21 11 7 24
13 29 13 6 -1 0 -7 -14 -15z m-43505 -55 c3 -6 -1 -7 -9 -4 -18 7 -21 14 -7
14 6 0 13 -4 16 -10z m38405 -14 c0 -2 -8 -10 -17 -17 -16 -13 -17 -12 -4 4
13 16 21 21 21 13z m-38310 -10 c0 -2 -8 -10 -17 -17 -16 -13 -17 -12 -4 4 13
16 21 21 21 13z m43215 -46 c-3 -5 -11 -10 -16 -10 -6 0 -7 5 -4 10 3 6 11 10
16 10 6 0 7 -4 4 -10z m-42945 -130 c-8 -5 -19 -10 -25 -10 -5 0 -3 5 5 10 8
5 20 10 25 10 6 0 3 -5 -5 -10z m42661 -27 c13 -16 12 -17 -3 -4 -10 7 -18 15
-18 17 0 8 8 3 21 -13z m-42618 -7 c4 -10 1 -13 -9 -9 -7 3 -14 9 -14 14 0 14
17 10 23 -5z m42572 -26 c-3 -5 -12 -10 -18 -10 -7 0 -6 4 3 10 19 12 23 12
15 0z m-75 -44 c0 -3 -4 -8 -10 -11 -5 -3 -10 -1 -10 4 0 6 5 11 10 11 6 0 10
-2 10 -4z m-180 -40 c0 -3 -4 -8 -10 -11 -5 -3 -10 -1 -10 4 0 6 5 11 10 11 6
0 10 -2 10 -4z m-37399 -73 c13 -16 12 -17 -3 -4 -10 7 -18 15 -18 17 0 8 8 3
21 -13z m-4539 -17 c-12 -7 -21 -14 -20 -17 2 -2 1 -3 -1 -1 -16 9 -4 27 18
29 l26 1 -23 -12z m44 -28 l19 -23 -25 20 c-14 11 -27 21 -29 22 -2 2 0 3 6 3
5 0 18 -10 29 -22z m41799 4 c-3 -3 -11 0 -18 7 -9 10 -8 11 6 5 10 -3 15 -9
12 -12z m-41705 -76 c0 -2 -9 -2 -20 1 -11 3 -20 9 -20 15 0 5 9 4 20 -2 11
-6 20 -12 20 -14z m41610 9 c0 -2 -10 -9 -22 -15 -22 -11 -22 -10 -4 4 21 17
26 19 26 11z m-36285 -15 c-3 -5 -12 -10 -18 -10 -7 0 -6 4 3 10 19 12 23 12
15 0z m-5284 -27 c13 -15 12 -15 -8 -4 -24 12 -29 21 -14 21 5 0 15 -7 22 -17z
m41519 13 c0 -3 -4 -8 -10 -11 -5 -3 -10 -1 -10 4 0 6 5 11 10 11 6 0 10 -2
10 -4z m-4570 -10 c0 -2 -7 -7 -16 -10 -8 -3 -12 -2 -9 4 6 10 25 14 25 6z
m4457 -40 c0 -8 -6 -12 -15 -9 -11 5 -11 7 0 14 7 5 13 9 14 9 0 0 1 -6 1 -14z
m-41292 -15 c3 -5 2 -12 -3 -15 -5 -3 -9 1 -9 9 0 17 3 19 12 6z m41265 -21
c0 -5 -5 -10 -11 -10 -5 0 -7 5 -4 10 3 6 8 10 11 10 2 0 4 -4 4 -10z m-41134
-44 c16 -12 17 -17 6 -28 -11 -11 -12 -10 -7 3 4 10 -2 19 -17 27 -13 6 -18
11 -12 11 5 1 19 -5 30 -13z m41024 -1 c0 -2 -6 -5 -13 -8 -8 -3 -14 1 -14 8
0 7 6 11 14 8 7 -3 13 -6 13 -8z m-37590 -5 c0 -5 -2 -10 -4 -10 -3 0 -8 5
-11 10 -3 6 -1 10 4 10 6 0 11 -4 11 -10z m-3365 -60 c3 -6 -1 -7 -9 -4 -18 7
-21 14 -7 14 6 0 13 -4 16 -10z m40 -28 c-3 -3 -11 0 -18 7 -9 10 -8 11 6 5
10 -3 15 -9 12 -12z m40765 -18 c0 -2 -9 0 -20 6 -11 6 -20 13 -20 16 0 2 9 0
20 -6 11 -6 20 -13 20 -16z m-40725 -2 c-3 -3 -11 0 -18 7 -9 10 -8 11 6 5 10
-3 15 -9 12 -12z m95 -26 c0 -2 -8 -10 -17 -17 -16 -13 -17 -12 -4 4 13 16 21
21 21 13z m40485 -24 c-6 -7 -34 11 -29 19 3 5 11 3 19 -4 7 -6 12 -13 10 -15z
m55 14 c0 -2 -7 -7 -16 -10 -8 -3 -12 -2 -9 4 6 10 25 14 25 6z m-70 -51 c0
-2 -10 -9 -22 -15 -22 -11 -22 -10 -4 4 21 17 26 19 26 11z m-95 -43 c-3 -3
-11 0 -18 7 -9 10 -8 11 6 5 10 -3 15 -9 12 -12z m-169 -67 c-1 -8 -5 -17 -8
-21 -5 -4 -4 16 1 34 3 9 9 -1 7 -13z m-2855 -302 c13 -16 12 -17 -3 -4 -10 7
-18 15 -18 17 0 8 8 3 21 -13z m-34188 -8 c-3 -9 -8 -14 -10 -11 -3 3 -2 9 2
15 9 16 15 13 8 -4z m36312 -5 c-3 -5 -12 -10 -18 -10 -7 0 -6 4 3 10 19 12
23 12 15 0z m-36345 -30 c0 -5 -5 -10 -11 -10 -5 0 -7 5 -4 10 3 6 8 10 11 10
2 0 4 -4 4 -10z m7320 -575 c71 -45 258 -135 375 -181 224 -87 425 -136 875
-214 339 -59 450 -80 610 -120 475 -119 936 -360 1312 -687 425 -369 719 -909
822 -1508 31 -179 56 -505 42 -558 l-6 -25 -71 30 c-102 42 -235 74 -374 88
-152 16 -495 8 -815 -19 -397 -34 -429 -35 -645 -35 -303 0 -516 30 -719 101
-432 149 -713 437 -1015 1040 -232 464 -375 965 -431 1513 -22 217 -25 600 -4
600 2 0 22 -11 44 -25z m19667 -254 c-3 -146 -13 -324 -21 -396 -86 -701 -307
-1318 -667 -1857 -87 -131 -144 -200 -246 -299 -142 -138 -271 -223 -448 -294
-337 -136 -708 -160 -1450 -93 -333 30 -783 32 -920 5 -112 -23 -213 -52 -282
-82 l-53 -24 -1 47 c-14 515 133 1065 398 1494 290 469 798 879 1369 1106 277
110 479 160 1039 256 317 55 463 86 620 132 215 64 401 141 570 237 44 25 84
43 89 40 5 -4 6 -117 3 -272z m-20829 -1716 c-3 -3 -9 2 -12 12 -6 14 -5 15 5
6 7 -7 10 -15 7 -18z m5 -130 c-3 -9 -8 -14 -10 -11 -3 3 -2 9 2 15 9 16 15
13 8 -4z m177 -380 c0 -5 -5 -3 -10 5 -5 8 -10 20 -10 25 0 6 5 3 10 -5 5 -8
10 -19 10 -25z m-173 -7 c-3 -7 -5 -2 -5 12 0 14 2 19 5 13 2 -7 2 -19 0 -25z
m191 -43 c-3 -3 -9 2 -12 12 -6 14 -5 15 5 6 7 -7 10 -15 7 -18z m21533 -51
c-11 -15 -21 -22 -21 -16 0 6 5 14 10 17 6 4 7 11 4 17 -4 7 -2 8 4 4 7 -4 12
-2 12 5 0 7 3 10 6 6 4 -3 -3 -18 -15 -33z m-21521 -22 c0 -5 -7 -17 -15 -28
-14 -18 -14 -17 -4 9 12 27 19 34 19 19z m73 -147 c-3 -9 -8 -14 -10 -11 -3 3
-2 9 2 15 9 16 15 13 8 -4z m8 -28 c-10 -9 -11 -8 -5 6 3 10 9 15 12 12 3 -3
0 -11 -7 -18z m73 -103 c3 -8 2 -12 -4 -9 -6 3 -10 10 -10 16 0 14 7 11 14 -7z
m21198 -46 c-7 -7 -12 -8 -12 -2 0 6 3 14 7 17 3 4 9 5 12 2 2 -3 -1 -11 -7
-17z m-31 -41 c-10 -9 -11 -8 -5 6 3 10 9 15 12 12 3 -3 0 -11 -7 -18z
m-21081 -73 c0 -8 -19 -13 -24 -6 -3 5 1 9 9 9 8 0 15 -2 15 -3z m-299 -37
c-10 -9 -11 -8 -5 6 3 10 9 15 12 12 3 -3 0 -11 -7 -18z m21333 8 c-4 -8 -11
-15 -16 -15 -6 0 -5 6 2 15 7 8 14 15 16 15 2 0 1 -7 -2 -15z m-21003 -58
c-10 -9 -11 -8 -5 6 3 10 9 15 12 12 3 -3 0 -11 -7 -18z m21232 -152 c-3 -9
-8 -14 -10 -11 -3 3 -2 9 2 15 9 16 15 13 8 -4z m-21499 -31 c3 -8 2 -12 -4
-9 -6 3 -10 10 -10 16 0 14 7 11 14 -7z m22 -76 c4 -7 3 -8 -4 -4 -7 4 -12 2
-12 -5 0 -7 -3 -10 -6 -6 -6 5 3 27 11 27 2 0 7 -5 11 -12z m21015 -55 c12
-16 12 -17 -2 -6 -9 7 -20 9 -24 5 -5 -4 -5 -1 -1 6 9 16 11 15 27 -5z
m-20566 -63 c3 -5 1 -10 -4 -10 -6 0 -11 5 -11 10 0 6 2 10 4 10 3 0 8 -4 11
-10z m130 -70 l30 -35 -32 29 c-18 17 -33 34 -33 40 0 5 1 7 3 5 1 -2 16 -20
32 -39z m20302 -15 c0 -8 -4 -12 -9 -9 -5 3 -6 10 -3 15 9 13 12 11 12 -6z
m-17 -18 c0 -2 -15 -16 -32 -33 l-33 -29 29 33 c28 30 36 37 36 29z m-20259
-28 c6 -13 7 -19 1 -15 -6 3 -12 0 -15 -6 -2 -7 -4 -1 -3 14 1 34 2 34 17 7z
m20286 -11 c-3 -8 -6 -5 -6 6 -1 11 2 17 5 13 3 -3 4 -12 1 -19z m-20248 -2
c9 -10 8 -15 -2 -19 -8 -3 -13 3 -13 14 0 23 0 23 15 5z m20218 -32 c-3 -3
-12 -4 -19 -1 -8 3 -5 6 6 6 11 1 17 -2 13 -5z m-20713 -50 c3 -8 2 -12 -4 -9
-6 3 -10 10 -10 16 0 14 7 11 14 -7z m576 -5 c0 -6 -4 -7 -10 -4 -5 3 -10 11
-10 16 0 6 5 7 10 4 6 -3 10 -11 10 -16z m-592 -24 c-3 -3 -9 2 -12 12 -6 14
-5 15 5 6 7 -7 10 -15 7 -18z m567 15 c3 -5 1 -10 -4 -10 -6 0 -11 5 -11 10 0
6 2 10 4 10 3 0 8 -4 11 -10z m20039 -31 c-3 -5 -10 -7 -15 -3 -6 3 -20 -2
-33 -12 -12 -11 -9 -6 7 9 25 25 56 30 41 6z m-9 -58 c-3 -6 -11 -11 -17 -11
-6 0 -6 6 2 15 14 17 26 13 15 -4z m561 -7 c-9 -8 -16 -20 -16 -26 0 -6 -3 -9
-6 -6 -8 9 14 48 27 48 6 0 3 -7 -5 -16z m-40 -30 c-4 -9 -1 -24 6 -33 11 -15
10 -15 -5 0 -16 13 -15 49 0 49 3 0 2 -7 -1 -16z m-20371 -14 c3 -6 -1 -7 -9
-4 -18 7 -21 14 -7 14 6 0 13 -4 16 -10z m-654 -47 c-12 -20 -14 -14 -5 12 4
9 9 14 11 11 3 -2 0 -13 -6 -23z m689 11 c0 -8 -19 -13 -24 -6 -3 5 1 9 9 9 8
0 15 -2 15 -3z m19620 -24 c-6 -11 -15 -20 -20 -20 -6 0 -2 9 7 20 10 11 19
20 21 20 1 0 -2 -9 -8 -20z m-20282 -55 c-3 -3 -9 2 -12 12 -6 14 -5 15 5 6 7
-7 10 -15 7 -18z m698 -12 c-6 -6 -36 9 -36 18 0 5 9 4 20 -3 10 -7 18 -14 16
-15z m65 10 c13 -16 12 -17 -3 -4 -10 7 -18 15 -18 17 0 8 8 3 21 -13z m20209
13 c0 -2 -7 -9 -15 -16 -13 -11 -14 -10 -9 4 5 14 24 23 24 12z m-808 -38 c-9
-9 -9 -15 1 -27 11 -14 10 -14 -6 -2 -13 10 -15 17 -6 27 6 8 14 14 17 14 3 0
1 -5 -6 -12z m771 -23 c-3 -9 -8 -14 -10 -11 -3 3 -2 9 2 15 9 16 15 13 8 -4z
m-20899 -11 c3 -8 2 -12 -4 -9 -6 3 -10 10 -10 16 0 14 7 11 14 -7z m807 -1
c13 -16 12 -17 -3 -4 -10 7 -18 15 -18 17 0 8 8 3 21 -13z m24 -23 c-3 -5 -12
-10 -18 -10 -7 0 -6 4 3 10 19 12 23 12 15 0z m7485 -14 c41 -10 91 -26 112
-37 20 -10 44 -19 52 -19 8 0 16 -3 18 -7 2 -5 19 -16 38 -25 73 -36 96 -53
189 -141 129 -124 221 -297 252 -477 13 -78 12 -243 -2 -322 -45 -258 -222
-501 -454 -620 -74 -38 -181 -74 -262 -88 -90 -16 -306 -8 -383 15 -30 9 -66
19 -80 22 -14 3 -27 9 -30 12 -3 3 -36 21 -73 39 -38 18 -74 37 -80 42 -7 5
-40 31 -73 58 -62 48 -164 161 -164 181 0 6 -4 11 -8 11 -13 0 -101 179 -108
220 -4 19 -11 43 -15 52 -10 18 -14 47 -24 168 -7 75 7 214 27 280 57 186 111
282 228 400 121 122 298 218 436 237 24 3 47 9 49 13 9 15 279 5 355 -14z
m4585 14 c118 -17 186 -38 281 -86 110 -56 137 -77 234 -175 144 -146 222
-315 245 -529 7 -69 12 -127 10 -130 -2 -3 -8 -40 -14 -82 -14 -98 -55 -221
-106 -318 -51 -96 -209 -259 -307 -315 -37 -21 -64 -43 -61 -48 3 -6 1 -7 -5
-3 -7 4 -26 0 -44 -8 -88 -40 -175 -57 -311 -63 -140 -6 -230 6 -328 42 -20 8
-40 11 -43 7 -4 -3 -10 -2 -14 4 -4 6 -37 26 -74 44 -38 18 -68 37 -68 41 0 5
-5 9 -11 9 -38 0 -229 192 -229 229 0 6 -3 11 -7 11 -5 0 -17 15 -27 33 -45
76 -68 127 -93 212 -24 81 -27 105 -27 245 0 132 3 167 23 240 24 84 85 222
102 228 5 2 9 8 9 13 0 18 76 113 127 159 81 74 99 87 180 134 165 95 366 133
558 106z m-11967 -73 c4 1 8 0 9 -1 2 -1 -11 -2 -27 -1 -17 1 -36 8 -43 15
-10 12 -9 12 6 1 16 -13 21 -9 18 14 -1 6 6 1 14 -10 9 -11 19 -19 23 -18z
m19904 1 c-7 -7 -12 -8 -12 -2 0 6 3 14 7 17 3 4 9 5 12 2 2 -3 -1 -11 -7 -17z
m-19832 -43 c11 -13 10 -14 -4 -9 -9 3 -16 10 -16 15 0 13 6 11 20 -6z m19779
-62 c-196 -326 -364 -560 -974 -1363 -558 -733 -853 -1185 -1125 -1730 -468
-934 -907 -2240 -1206 -3590 -26 -118 -50 -218 -53 -222 -3 -3 -53 8 -111 26
-542 167 -998 520 -1277 986 -252 422 -374 870 -435 1605 -8 96 -12 354 -13
720 0 551 5 793 25 1260 13 291 25 847 25 1117 l0 216 160 51 c211 67 305 92
581 151 220 47 308 61 239 38 -16 -5 -44 -16 -62 -24 -17 -8 -46 -17 -65 -21
-18 -3 -67 -23 -108 -43 -41 -21 -79 -39 -85 -41 -26 -10 -145 -92 -145 -100
0 -5 -6 -9 -13 -9 -7 0 -23 -11 -34 -24 -12 -13 -27 -28 -35 -32 -25 -16 -95
-119 -118 -174 -33 -78 -33 -186 -1 -255 33 -70 108 -130 193 -156 86 -26 189
-22 358 15 105 23 144 27 243 24 66 -2 121 -6 124 -10 2 -5 14 -8 26 -8 30 0
132 -26 182 -46 95 -39 175 -78 175 -86 0 -4 4 -8 9 -8 41 0 307 -228 288
-247 -4 -3 -37 10 -74 30 -195 101 -420 127 -579 68 -61 -23 -140 -65 -165
-87 -8 -8 -20 -14 -25 -14 -9 0 -75 -67 -141 -142 -105 -119 -247 -436 -254
-565 -1 -21 -7 -44 -12 -50 -5 -7 -14 -83 -20 -168 -11 -153 -2 -306 23 -390
5 -16 14 -50 21 -75 30 -114 104 -265 136 -277 7 -3 13 -10 13 -17 1 -26 138
-146 168 -146 6 0 12 -4 14 -9 5 -13 122 -50 198 -62 147 -22 442 27 605 101
11 5 40 18 65 29 51 23 152 80 160 90 3 4 23 20 46 36 74 54 168 142 224 211
30 36 60 72 65 78 29 30 95 124 95 134 0 7 4 12 8 12 4 0 16 15 26 33 11 17
43 69 73 113 29 45 53 84 53 88 0 4 8 19 19 34 10 15 44 72 76 127 136 233
239 392 314 485 11 14 34 42 50 64 17 21 39 46 49 55 10 9 27 28 36 44 10 15
23 27 30 27 18 0 573 568 690 707 33 40 57 66 115 128 20 22 77 85 126 140 48
55 101 114 116 130 37 41 120 136 139 159 12 16 142 165 175 202 6 6 28 33 50
59 22 26 50 59 63 73 12 14 41 48 65 75 115 137 226 263 240 276 10 7 17 19
17 25 0 7 13 25 29 40 19 18 28 36 26 52 -1 13 2 21 7 18 5 -3 7 -13 3 -22 -5
-13 -2 -12 15 3 11 10 20 21 20 25 0 7 52 69 58 70 2 0 -7 -17 -19 -37z m-973
12 c-3 -21 -13 -28 -27 -19 -9 5 -7 11 6 21 23 16 24 16 21 -2z m-19621 -87
c3 4 3 -2 -1 -12 -4 -12 -3 -17 2 -13 5 3 20 -10 33 -29 13 -18 27 -31 32 -28
5 3 6 -3 2 -12 -4 -12 -3 -15 5 -10 7 4 12 1 12 -6 0 -8 17 -32 38 -55 37 -40
51 -57 197 -228 43 -49 103 -119 135 -155 31 -36 70 -81 86 -100 16 -19 32
-36 37 -38 4 -2 7 -10 7 -18 0 -8 4 -14 9 -14 5 0 42 -39 84 -87 41 -49 88
-102 103 -120 16 -17 49 -55 74 -83 71 -81 79 -91 254 -285 175 -195 335 -363
586 -614 279 -281 315 -320 390 -433 14 -21 28 -38 33 -38 4 0 7 -4 7 -9 0
-12 63 -115 73 -119 4 -2 7 -8 7 -12 0 -16 349 -593 379 -627 18 -22 81 -112
81 -118 0 -2 12 -17 28 -33 15 -16 54 -57 87 -93 77 -81 159 -151 240 -206 68
-46 176 -103 193 -103 6 0 12 -4 14 -8 4 -10 152 -57 243 -76 320 -70 548 -24
710 142 30 31 58 64 61 74 3 10 8 18 12 18 16 0 95 171 117 256 29 107 35 154
41 312 6 144 2 205 -22 340 -28 157 -152 469 -182 457 -7 -3 -10 0 -7 5 6 9
-7 40 -26 64 -148 187 -238 258 -394 309 -132 43 -251 43 -395 -2 -58 -18
-109 -37 -115 -42 -5 -5 -15 -9 -22 -9 -7 0 -31 -11 -53 -25 -46 -29 -50 -30
-50 -12 0 14 142 157 156 157 3 0 29 18 58 39 29 21 90 58 136 81 252 127 499
150 791 76 216 -56 423 34 469 205 26 92 9 179 -55 279 -43 68 -137 165 -182
189 -15 7 -36 22 -47 32 -11 11 -25 19 -32 19 -7 0 -14 4 -16 8 -5 13 -194
102 -221 104 -14 1 -23 6 -21 10 3 4 0 8 -6 8 -21 0 -122 32 -117 37 16 15
639 -132 853 -202 l141 -47 6 -521 c4 -287 8 -547 11 -577 3 -30 7 -147 11
-260 3 -113 8 -241 10 -285 10 -156 25 -1005 20 -1122 -3 -65 -7 -199 -10
-297 -15 -511 -85 -964 -206 -1331 -250 -755 -780 -1282 -1523 -1514 -55 -17
-101 -29 -104 -27 -2 3 -17 64 -33 138 -297 1354 -714 2621 -1178 3583 -295
610 -642 1141 -1317 2015 -275 356 -477 632 -639 876 -88 132 -168 256 -178
275 -18 33 -17 32 27 -12 25 -26 48 -44 51 -41z m963 57 c1 -1 -13 -2 -30 -2
-18 0 -27 2 -20 5 6 2 9 8 6 14 -5 8 29 -5 44 -17z m18612 5 c0 -5 -5 -10 -11
-10 -5 0 -7 5 -4 10 3 6 8 10 11 10 2 0 4 -4 4 -10z m17 -26 c-3 -3 -12 -4
-19 -1 -8 3 -5 6 6 6 11 1 17 -2 13 -5z m-18593 -12 c3 -5 -1 -9 -9 -9 -8 0
-12 4 -9 9 3 4 7 8 9 8 2 0 6 -4 9 -8z m106 -42 c8 -5 11 -10 5 -10 -5 0 -17
5 -25 10 -8 5 -10 10 -5 10 6 0 17 -5 25 -10z m18320 5 c0 -2 -10 -9 -22 -15
-22 -11 -22 -10 -4 4 21 17 26 19 26 11z m-215 -113 c-3 -3 -11 0 -18 7 -9 10
-8 11 6 5 10 -3 15 -9 12 -12z m-17850 -12 c-3 -5 -12 -10 -18 -10 -7 0 -6 4
3 10 19 12 23 12 15 0z m17665 -44 c0 -3 -4 -8 -10 -11 -5 -3 -10 -1 -10 4 0
6 5 11 10 11 6 0 10 -2 10 -4z m-17523 -42 c-3 -3 -12 -4 -19 -1 -8 3 -5 6 6
6 11 1 17 -2 13 -5z m17223 -48 c0 -2 -7 -7 -16 -10 -8 -3 -12 -2 -9 4 6 10
25 14 25 6z m-16243 -162 c-3 -3 -12 -4 -19 -1 -8 3 -5 6 6 6 11 1 17 -2 13
-5z m15548 -4 c-3 -5 -14 -10 -23 -9 -14 0 -13 2 3 9 27 11 27 11 20 0z
m-15408 -26 c-3 -3 -12 -4 -19 -1 -8 3 -5 6 6 6 11 1 17 -2 13 -5z m368 -64
c3 -6 -1 -7 -9 -4 -18 7 -21 14 -7 14 6 0 13 -4 16 -10z m415 -14 c0 -2 -7 -7
-16 -10 -8 -3 -12 -2 -9 4 6 10 25 14 25 6z m13723 -3 c-7 -2 -19 -2 -25 0 -7
3 -2 5 12 5 14 0 19 -2 13 -5z m-13655 -10 c-10 -2 -26 -2 -35 0 -10 3 -2 5
17 5 19 0 27 -2 18 -5z m13585 0 c-7 -2 -19 -2 -25 0 -7 3 -2 5 12 5 14 0 19
-2 13 -5z m-566 -89 c-3 -3 -12 -4 -19 -1 -8 3 -5 6 6 6 11 1 17 -2 13 -5z
m-5150 -86 c-3 -8 -6 -5 -6 6 -1 11 2 17 5 13 3 -3 4 -12 1 -19z m5510 -1084
c-3 -3 -12 -4 -19 -1 -8 3 -5 6 6 6 11 1 17 -2 13 -5z m5434 -1061 c13 -16 12
-17 -3 -4 -10 7 -18 15 -18 17 0 8 8 3 21 -13z m-23086 -121 c-3 -3 -11 0 -18
7 -9 10 -8 11 6 5 10 -3 15 -9 12 -12z m36 -29 c13 -16 12 -17 -3 -4 -17 13
-22 21 -14 21 2 0 10 -8 17 -17z m21170 -1210 c-12 -20 -14 -14 -5 12 4 9 9
14 11 11 3 -2 0 -13 -6 -23z m2036 -425 c-3 -8 -6 -5 -6 6 -1 11 2 17 5 13 3
-3 4 -12 1 -19z m-2443 -454 c3 -8 2 -12 -4 -9 -6 3 -10 10 -10 16 0 14 7 11
14 -7z m-21616 -139 c-3 -3 -9 2 -12 12 -6 14 -5 15 5 6 7 -7 10 -15 7 -18z
m23662 -99 c0 -2 -8 -10 -17 -17 -16 -13 -17 -12 -4 4 13 16 21 21 21 13z
m-22859 -623 c13 -15 12 -15 -8 -4 -24 12 -29 21 -14 21 5 0 15 -7 22 -17z
m21767 -353 c-7 -11 -17 -20 -22 -20 -5 0 -1 9 9 20 10 11 20 20 22 20 2 0 -2
-9 -9 -20z m752 -344 c0 -2 -8 -10 -17 -17 -16 -13 -17 -12 -4 4 13 16 21 21
21 13z m-22609 -243 c13 -16 12 -17 -3 -4 -17 13 -22 21 -14 21 2 0 10 -8 17
-17z m7184 -1278 c268 -28 586 -97 980 -211 105 -30 505 -160 890 -289 385
-128 797 -263 915 -298 405 -123 802 -219 1082 -262 106 -16 107 -16 265 10
478 80 836 181 1908 540 859 288 1173 381 1518 450 415 83 791 97 1075 39 156
-32 348 -107 466 -182 276 -177 617 -582 948 -1127 482 -794 941 -1910 1142
-2775 84 -362 101 -549 93 -1004 -6 -342 -13 -439 -53 -716 -69 -482 -191
-892 -379 -1275 -185 -377 -422 -682 -702 -906 -335 -268 -748 -438 -1224
-504 -160 -23 -585 -30 -869 -16 -586 30 -1067 99 -1619 232 -307 74 -602 162
-1181 354 -674 223 -911 290 -1198 340 -89 15 -93 15 -224 -11 -299 -58 -499
-115 -1178 -339 -841 -278 -1215 -378 -1755 -469 -649 -110 -1487 -148 -1910
-86 -465 67 -854 230 -1196 500 -695 549 -1107 1590 -1136 2875 -9 437 17 700
107 1071 205 847 635 1894 1092 2664 293 492 642 936 878 1115 201 153 454
253 722 284 119 14 393 12 543 -4z m14835 -850 c0 -5 -5 -3 -10 5 -5 8 -10 20
-10 25 0 6 5 3 10 -5 5 -8 10 -19 10 -25z m934 -2723 c3 -5 -1 -9 -9 -9 -8 0
-12 4 -9 9 3 4 7 8 9 8 2 0 6 -4 9 -8z m-73 -75 c-10 -9 -11 -8 -5 6 3 10 9
15 12 12 3 -3 0 -11 -7 -18z m163 -53 c9 -24 2 -26 -12 -4 -7 11 -8 20 -3 20
5 0 12 -7 15 -16z m-23603 -27 c-10 -9 -11 -8 -5 6 3 10 9 15 12 12 3 -3 0
-11 -7 -18z m23640 -4 c13 -16 12 -17 -3 -4 -10 7 -18 15 -18 17 0 8 8 3 21
-13z m-23861 -69 c0 -8 -19 -13 -24 -6 -3 5 1 9 9 9 8 0 15 -2 15 -3z m23960
-84 c3 -1 9 -2 13 -1 5 1 6 -3 2 -9 -5 -8 -11 -8 -19 -1 -7 6 -15 8 -18 5 -3
-3 -9 -1 -12 4 -5 9 14 9 34 2z m-23650 -57 c-11 -17 -11 -17 -6 0 3 10 6 24
7 30 0 9 2 9 5 0 3 -7 0 -20 -6 -30z m23658 2 c-3 -3 -9 2 -12 12 -6 14 -5 15
5 6 7 -7 10 -15 7 -18z m-24068 -21 c0 -8 -19 -13 -24 -6 -3 5 1 9 9 9 8 0 15
-2 15 -3z m433 -49 c-3 -9 -8 -14 -10 -11 -3 3 -2 9 2 15 9 16 15 13 8 -4z
m-473 -8 c0 -2 -10 -12 -21 -23 -22 -19 -22 -19 -8 4 12 19 29 30 29 19z
m23664 -72 c-4 -8 -11 -15 -16 -15 -6 0 -5 6 2 15 7 8 14 15 16 15 2 0 1 -7
-2 -15z m-23147 -40 c0 -8 -4 -12 -9 -9 -5 3 -6 10 -3 15 9 13 12 11 12 -6z
m-617 -15 c6 -11 8 -20 6 -20 -3 0 -10 9 -16 20 -6 11 -8 20 -6 20 3 0 10 -9
16 -20z m645 0 c3 -5 1 -10 -4 -10 -6 0 -11 5 -11 10 0 6 2 10 4 10 3 0 8 -4
11 -10z m23031 -102 c-9 -12 -16 -19 -16 -15 0 11 24 47 28 42 2 -2 -3 -14
-12 -27z m-23791 -37 c-3 -5 -1 -12 5 -16 5 -3 10 -11 10 -18 0 -6 -6 -2 -14
8 -13 18 -13 35 0 35 3 0 3 -4 -1 -9z m24591 -20 c1 -6 0 -7 -3 -1 -2 5 -9 8
-13 5 -5 -3 -11 -1 -14 4 -4 5 2 8 11 7 9 -2 18 -8 19 -15z m-817 -21 c11 -24
11 -24 -3 -6 -9 11 -16 24 -16 30 0 12 5 7 19 -24z m826 -10 c-3 -5 -12 -10
-18 -10 -7 0 -6 4 3 10 19 12 23 12 15 0z m-24650 -39 c-9 -8 -36 -10 -30 -2
2 4 11 8 20 8 8 0 13 -3 10 -6z m24703 -66 c6 -14 10 -25 8 -25 -2 0 -11 11
-20 25 -9 14 -13 25 -8 25 5 0 14 -11 20 -25z m-918 -28 c0 -7 -4 -6 -10 3 -8
12 -10 12 -10 1 0 -8 -3 -12 -6 -8 -9 9 6 28 17 22 5 -4 9 -12 9 -18z m-23830
-31 c0 -2 -8 -10 -17 -17 -16 -13 -17 -12 -4 4 13 16 21 21 21 13z m24820 -32
c0 -8 -19 -13 -24 -6 -3 5 1 9 9 9 8 0 15 -2 15 -3z m-24937 -117 c3 -8 -1
-14 -8 -14 -7 0 -11 6 -8 14 3 7 6 13 8 13 2 0 5 -6 8 -13z m23860 -32 c-3 -9
-8 -14 -10 -11 -3 3 -2 9 2 15 9 16 15 13 8 -4z m-23960 -145 c-3 -11 -10 -23
-16 -27 -5 -3 -8 -2 -5 3 3 5 8 17 11 27 9 24 16 22 10 -3z m1337 -25 c0 -5
-5 -3 -10 5 -5 8 -10 20 -10 25 0 6 5 3 10 -5 5 -8 10 -19 10 -25z m-1397 -30
c-3 -9 -8 -14 -10 -11 -3 3 -2 9 2 15 9 16 15 13 8 -4z m23903 -69 c0 -19 -4
-32 -8 -30 -3 2 -8 1 -11 -3 -2 -5 -2 -1 1 7 2 8 6 24 7 35 6 39 12 34 11 -9z
m-22465 -19 c-10 -9 -11 -8 -5 6 3 10 9 15 12 12 3 -3 0 -11 -7 -18z m35 -24
c-3 -4 -6 0 -6 7 0 9 -5 7 -15 -6 -14 -18 -14 -17 -3 9 10 24 13 25 21 12 5
-9 6 -19 3 -22z m-1581 -92 c3 -5 2 -12 -3 -15 -5 -3 -9 1 -9 9 0 17 3 19 12
6z m23965 1 c0 -5 -7 -17 -15 -28 -14 -18 -14 -17 -4 9 12 27 19 34 19 19z
m1593 -9 c-3 -7 -6 -13 -8 -13 -2 0 -5 6 -8 13 -3 8 1 14 8 14 7 0 11 -6 8
-14z m-1628 -11 c-3 -3 -11 0 -18 7 -9 10 -8 11 6 5 10 -3 15 -9 12 -12z
m-23945 -16 c0 -2 -8 -10 -17 -17 -16 -13 -17 -12 -4 4 13 16 21 21 21 13z
m1624 -32 c3 -8 2 -12 -4 -9 -6 3 -10 10 -10 16 0 14 7 11 14 -7z m-1661 -7
c7 3 8 2 4 -2 -14 -16 -36 -14 -29 3 4 10 7 12 10 4 2 -7 9 -9 15 -5z m25707
-41 c0 -2 -6 -9 -14 -15 -11 -9 -16 -9 -22 0 -4 7 -3 9 4 5 6 -3 13 -2 17 4 6
10 15 14 15 6z m9 -70 c-3 -3 -11 5 -18 17 -13 21 -12 21 5 5 10 -10 16 -20
13 -22z m-24005 -22 c3 -8 2 -12 -4 -9 -6 3 -10 10 -10 16 0 14 7 11 14 -7z
m24993 -26 c-3 -8 -6 -5 -6 6 -1 11 2 17 5 13 3 -3 4 -12 1 -19z m-24957 -73
c0 -5 -5 -3 -10 5 -5 8 -10 20 -10 25 0 6 5 3 10 -5 5 -8 10 -19 10 -25z
m-1888 3 c-7 -7 -12 -8 -12 -2 0 14 12 26 19 19 2 -3 -1 -11 -7 -17z m25978
-38 c-6 -11 -13 -20 -16 -20 -2 0 0 9 6 20 6 11 13 20 16 20 2 0 0 -9 -6 -20z
m-26067 -85 c-7 -21 -12 -19 -10 4 0 11 5 18 9 15 4 -3 5 -11 1 -19z m26155
-30 c-3 -3 -9 2 -12 12 -6 14 -5 15 5 6 7 -7 10 -15 7 -18z m-26257 -132 c13
-16 12 -17 -3 -4 -17 13 -22 21 -14 21 2 0 10 -8 17 -17z m-55 -94 c-9 -13
-16 -18 -16 -12 0 7 5 15 11 18 6 4 8 14 4 24 -5 12 -3 13 6 4 9 -9 8 -17 -5
-34z m26445 -26 c13 -16 12 -17 -3 -4 -10 7 -18 15 -18 17 0 8 8 3 21 -13z
m-27104 -35 c-3 -8 -6 -5 -6 6 -1 11 2 17 5 13 3 -3 4 -12 1 -19z m27171 -64
c4 2 9 -4 9 -15 2 -18 0 -18 -18 4 -10 14 -19 31 -18 39 0 7 4 3 10 -10 5 -13
12 -21 17 -18z m62 -68 c13 -17 13 -18 1 -11 -11 6 -13 4 -8 -11 7 -18 7 -18
-7 -1 -8 11 -12 25 -9 33 3 8 6 14 7 12 1 -2 8 -12 16 -22z m-24167 -23 c-3
-7 -6 -13 -8 -13 -2 0 -5 6 -8 13 -3 8 1 14 8 14 7 0 11 -6 8 -14z m-2543 -9
c0 -8 -19 -13 -24 -6 -3 5 1 9 9 9 8 0 15 -2 15 -3z m-34 -41 c-3 -4 -6 -1 -6
6 0 7 -4 9 -10 6 -6 -4 -7 1 -3 11 6 15 7 15 15 -1 6 -9 7 -19 4 -22z m26817
-50 c-3 -7 -6 -13 -8 -13 -2 0 -5 6 -8 13 -3 8 1 14 8 14 7 0 11 -6 8 -14z
m-26880 -56 c-3 -4 -8 -6 -11 -3 -3 3 -11 1 -19 -6 -11 -8 -12 -7 -7 5 3 9 14
15 24 14 10 -1 16 -5 13 -10z m24227 -7 c-6 -11 -13 -20 -16 -20 -2 0 0 9 6
20 6 11 13 20 16 20 2 0 0 -9 -6 -20z m-19753 -32 c-3 -8 -6 -5 -6 6 -1 11 2
17 5 13 3 -3 4 -12 1 -19z m19721 -3 c-3 -3 -9 2 -12 12 -6 14 -5 15 5 6 7 -7
10 -15 7 -18z m2732 5 c6 -11 8 -20 6 -20 -3 0 -10 9 -16 20 -6 11 -8 20 -6
20 3 0 10 -9 16 -20z m-27007 -47 c-3 -7 -9 -13 -13 -13 -4 0 -10 6 -13 13 -3
7 3 13 13 13 10 0 16 -6 13 -13z m-10 -48 c-3 -9 -8 -14 -10 -11 -3 3 -2 9 2
15 9 16 15 13 8 -4z m2801 -1 c3 -8 2 -12 -4 -9 -6 3 -10 10 -10 16 0 14 7 11
14 -7z m21444 -39 c-3 -3 -9 2 -12 12 -6 14 -5 15 5 6 7 -7 10 -15 7 -18z
m-20 -80 c-3 -3 -9 2 -12 12 -6 14 -5 15 5 6 7 -7 10 -15 7 -18z m-21374 -21
c3 -8 2 -12 -4 -9 -6 3 -10 10 -10 16 0 14 7 11 14 -7z m24317 -1 c13 -16 12
-17 -3 -4 -17 13 -22 21 -14 21 2 0 10 -8 17 -17z m32 -34 c-8 -8 -13 -7 -18
2 -5 8 -4 10 3 5 7 -4 12 -2 12 5 0 7 3 9 7 6 4 -4 2 -12 -4 -18z m-27333 -33
c0 -2 -8 -10 -17 -17 -16 -13 -17 -12 -4 4 13 16 21 21 21 13z m27404 -92 c3
-8 2 -12 -4 -9 -6 3 -10 10 -10 16 0 14 7 11 14 -7z m-3153 -67 c-10 -9 -11
-8 -5 6 3 10 9 15 12 12 3 -3 0 -11 -7 -18z m-21107 -152 c-4 -8 -11 -15 -16
-15 -6 0 -5 6 2 15 7 8 14 15 16 15 2 0 1 -7 -2 -15z m29 -70 c-3 -9 -8 -14
-10 -11 -3 3 -2 9 2 15 9 16 15 13 8 -4z m94 -172 c1 -22 -1 -24 -8 -10 -6 9
-7 22 -4 27 9 14 10 13 12 -17z m20806 -110 c-7 -2 -13 -10 -13 -17 0 -7 -6
-20 -13 -30 -12 -16 -13 -16 -13 3 0 11 3 18 7 15 4 -2 9 5 12 16 3 11 11 20
19 19 10 0 10 -2 1 -6z m-20775 -88 c-3 -3 -9 2 -12 12 -6 14 -5 15 5 6 7 -7
10 -15 7 -18z m41 -22 c-7 -10 -14 -19 -15 -21 -1 -2 -4 4 -8 13 -3 9 -2 13 3
10 5 -3 12 -1 16 5 3 5 9 10 12 10 3 0 -1 -8 -8 -17z m20694 -9 c-5 -13 -7
-13 -14 -2 -7 11 -9 10 -9 -1 0 -8 -3 -11 -6 -8 -9 9 16 38 27 32 4 -3 5 -13
2 -21z m-70 -109 c-3 -9 -8 -14 -10 -11 -3 3 -2 9 2 15 9 16 15 13 8 -4z m-27
-113 c-17 -16 -18 -16 -5 5 7 12 15 20 18 17 3 -2 -3 -12 -13 -22z m-20350
-469 c-3 -4 -6 -1 -6 6 0 7 -4 9 -10 6 -6 -4 -7 1 -3 11 6 15 7 15 15 -1 6 -9
7 -19 4 -22z m51 -108 c4 -4 3 -5 -4 -2 -6 4 -13 2 -15 -5 -3 -8 -6 -6 -10 4
-7 17 15 19 29 3z m31 -130 c-3 -3 -9 2 -12 12 -6 14 -5 15 5 6 7 -7 10 -15 7
-18z m20003 2 c-6 -8 -9 -17 -6 -21 3 -3 0 -2 -6 3 -12 10 -4 31 13 31 7 0 7
-4 -1 -13z m-19937 -93 c3 -8 2 -12 -4 -9 -6 3 -10 10 -10 16 0 14 7 11 14 -7z
m19893 -16 c2 -17 0 -19 -7 -8 -5 8 -6 18 -4 22 8 12 10 10 11 -14z m-74 -203
c-3 -9 -8 -14 -10 -11 -3 3 -2 9 2 15 9 16 15 13 8 -4z m-19673 -230 c7 -9 8
-15 2 -15 -5 0 -12 7 -16 15 -3 8 -4 15 -2 15 2 0 9 -7 16 -15z m19507 -87
c-3 -7 -5 -2 -5 12 0 14 2 19 5 13 2 -7 2 -19 0 -25z m46 7 c-3 -9 -8 -14 -10
-11 -3 3 -2 9 2 15 9 16 15 13 8 -4z m-17975 -50 c-3 -3 -9 2 -12 12 -6 14 -5
15 5 6 7 -7 10 -15 7 -18z m-1510 -10 c-3 -3 -9 2 -12 12 -6 14 -5 15 5 6 7
-7 10 -15 7 -18z m25 -10 c-3 -9 -8 -14 -10 -11 -3 3 -2 9 2 15 9 16 15 13 8
-4z m-28 -15 c3 -5 1 -10 -4 -10 -6 0 -11 5 -11 10 0 6 2 10 4 10 3 0 8 -4 11
-10z m22 -42 c-3 -8 -6 -5 -6 6 -1 11 2 17 5 13 3 -3 4 -12 1 -19z m23 -6 c0
-5 -7 -17 -15 -28 -14 -18 -14 -17 -4 9 12 27 19 34 19 19z m50 -165 c0 -7 -4
-6 -10 3 -8 12 -10 12 -10 1 0 -8 -3 -12 -6 -8 -9 9 6 28 17 22 5 -4 9 -12 9
-18z m19240 -111 c0 -2 -7 -9 -15 -16 -13 -11 -14 -10 -9 4 5 14 24 23 24 12z
m-19172 -111 c-3 -3 -9 2 -12 12 -6 14 -5 15 5 6 7 -7 10 -15 7 -18z m19082
-115 c-6 -11 -13 -20 -16 -20 -2 0 0 9 6 20 6 11 13 20 16 20 2 0 0 -9 -6 -20z
m-40 -34 c0 -2 -7 -7 -16 -10 -8 -3 -12 -2 -9 4 6 10 25 14 25 6z m-18933 -98
c2 -17 0 -19 -7 -8 -5 8 -6 18 -4 22 8 12 10 10 11 -14z m62 -168 c11 -24 11
-24 -3 -6 -9 11 -16 24 -16 30 0 12 5 7 19 -24z m36 10 c-3 -5 -12 -10 -18
-10 -7 0 -6 4 3 10 19 12 23 12 15 0z m17088 -55 c-3 -9 -8 -14 -10 -11 -3 3
-2 9 2 15 9 16 15 13 8 -4z m1630 -60 c-3 -9 -8 -14 -10 -11 -3 3 -2 9 2 15 9
16 15 13 8 -4z m-18683 -95 c0 -5 -2 -10 -4 -10 -3 0 -8 5 -11 10 -3 6 -1 10
4 10 6 0 11 -4 11 -10z m18566 -120 c0 -12 -4 -16 -9 -11 -5 5 -6 14 -3 20 10
15 12 14 12 -9z m5 -53 c-10 -9 -11 -8 -5 6 3 10 9 15 12 12 3 -3 0 -11 -7
-18z m-60 -160 c-10 -9 -11 -8 -5 6 3 10 9 15 12 12 3 -3 0 -11 -7 -18z
m-18316 -87 c3 -6 -1 -7 -9 -4 -18 7 -21 14 -7 14 6 0 13 -4 16 -10z m18283
-25 c-3 -3 -9 2 -12 12 -6 14 -5 15 5 6 7 -7 10 -15 7 -18z m-18301 -37 c-3
-8 -6 -5 -6 6 -1 11 2 17 5 13 3 -3 4 -12 1 -19z m18264 -55 c-12 -20 -14 -14
-5 12 4 9 9 14 11 11 3 -2 0 -13 -6 -23z m-8284 -259 c-3 -3 -12 -4 -19 -1 -8
3 -5 6 6 6 11 1 17 -2 13 -5z m-9827 -44 c6 -11 8 -20 6 -20 -3 0 -10 9 -16
20 -6 11 -8 20 -6 20 3 0 10 -9 16 -20z m33 -25 c-3 -9 -8 -14 -10 -11 -3 3
-2 9 2 15 9 16 15 13 8 -4z m40 -130 c-3 -9 -8 -14 -10 -11 -3 3 -2 9 2 15 9
16 15 13 8 -4z m25 -130 c-3 -3 -9 2 -12 12 -6 14 -5 15 5 6 7 -7 10 -15 7
-18z m17751 -80 c0 -5 -4 -3 -9 5 -5 8 -9 22 -9 30 0 16 17 -16 18 -35z
m-17655 -121 c3 -8 2 -12 -4 -9 -6 3 -10 10 -10 16 0 14 7 11 14 -7z m17593
-44 c-2 -11 -6 -22 -9 -26 -4 -3 -5 2 -3 13 2 10 4 21 4 26 1 4 3 7 6 7 3 0 4
-9 2 -20z m-27 -30 c0 -5 -5 -10 -11 -10 -5 0 -7 5 -4 10 3 6 8 10 11 10 2 0
4 -4 4 -10z m-15676 -89 c4 -5 -3 -7 -14 -4 -23 6 -26 13 -6 13 8 0 17 -4 20
-9z m13796 -16 c11 -16 11 -18 0 -8 -10 9 -17 10 -27 2 -17 -14 -17 -3 0 15 6
8 12 13 12 12 1 0 7 -10 15 -21z m-13790 -20 c0 -12 -19 -12 -23 0 -4 9 -1 12
9 8 7 -3 14 -7 14 -8z m75 -15 c10 -11 16 -20 13 -20 -3 0 -13 9 -23 20 -10
11 -16 20 -13 20 3 0 13 -9 23 -20z m42 -25 c0 -8 -4 -12 -9 -9 -5 3 -6 10 -3
15 9 13 12 11 12 -6z m40 8 c-4 -3 -2 -12 4 -20 7 -8 8 -13 1 -13 -5 0 -15 6
-21 14 -9 11 -9 15 1 19 19 8 22 8 15 0z m13523 -19 c0 -2 -9 0 -20 6 -11 6
-20 13 -20 16 0 2 9 0 20 -6 11 -6 20 -13 20 -16z m-13730 -18 c0 -2 -8 -10
-17 -17 -16 -13 -17 -12 -4 4 13 16 21 21 21 13z m13634 -44 c2 -4 -4 -8 -14
-8 -10 0 -16 4 -14 8 3 4 9 8 14 8 5 0 11 -4 14 -8z m316 2 c0 -8 -19 -13 -24
-6 -3 5 1 9 9 9 8 0 15 -2 15 -3z m18 -39 c-3 -3 -9 2 -12 12 -6 14 -5 15 5 6
7 -7 10 -15 7 -18z m-388 -8 c0 -2 -10 -12 -22 -23 l-23 -19 19 23 c18 21 26
27 26 19z m-13685 -29 c5 4 5 1 0 -6 -5 -10 -10 -11 -18 -3 -7 7 -15 7 -26 -2
-14 -11 -14 -10 -2 6 9 12 17 14 26 7 6 -5 16 -6 20 -2z m13594 -24 c-6 -8
-16 -14 -21 -14 -7 0 -6 5 1 13 6 8 8 17 4 21 -4 4 0 4 10 0 14 -5 15 -9 6
-20z m36 17 c3 -5 2 -12 -3 -15 -5 -3 -9 1 -9 9 0 17 3 19 12 6z m528 -54 c4
3 7 4 7 0 0 -17 -20 -14 -36 6 -19 22 -19 22 2 4 11 -9 24 -14 27 -10z
m-13608 -7 c10 -11 16 -20 13 -20 -3 0 -13 9 -23 20 -10 11 -16 20 -13 20 3 0
13 -9 23 -20z m42 -25 c0 -8 -4 -12 -9 -9 -5 3 -6 10 -3 15 9 13 12 11 12 -6z
m40 8 c-4 -3 -2 -12 4 -20 7 -8 8 -13 1 -13 -5 0 -15 6 -21 14 -9 11 -9 15 1
19 19 8 22 8 15 0z m-687 -17 c0 -2 -8 -10 -17 -17 -16 -13 -17 -12 -4 4 13
16 21 21 21 13z m-1493 -42 c2 -13 1 -15 -4 -4 -3 8 -11 19 -17 23 -7 6 -6 7
4 4 8 -2 16 -12 17 -23z m1463 0 c0 -8 -19 -13 -24 -6 -3 5 1 9 9 9 8 0 15 -2
15 -3z m-1447 -44 c3 -11 1 -18 -4 -14 -5 3 -9 12 -9 20 0 20 7 17 13 -6z
m14897 -23 c0 -2 -10 -12 -22 -23 l-23 -19 19 23 c18 21 26 27 26 19z m-14860
-41 c0 -6 -5 -4 -10 4 -9 13 -10 13 -10 0 0 -13 -2 -13 -9 0 -6 8 -7 18 -4 23
6 10 33 -11 33 -27z m15780 18 c0 -8 -19 -13 -24 -6 -3 5 1 9 9 9 8 0 15 -2
15 -3z m-1011 -30 c-6 -8 -16 -14 -21 -14 -7 0 -6 5 1 13 6 8 8 17 4 21 -4 4
0 4 10 0 14 -5 15 -9 6 -20z m36 17 c3 -5 2 -12 -3 -15 -5 -3 -9 1 -9 9 0 17
3 19 12 6z m1005 -11 c0 -5 -2 -10 -4 -10 -3 0 -8 5 -11 10 -3 6 -1 10 4 10 6
0 11 -4 11 -10z m1301 -13 c-10 -9 -11 -8 -5 6 3 10 9 15 12 12 3 -3 0 -11 -7
-18z m-1288 -21 c4 -10 1 -13 -8 -9 -8 3 -12 9 -9 14 7 12 11 11 17 -5z
m-13458 -16 c10 -11 16 -20 13 -20 -3 0 -13 9 -23 20 -10 11 -16 20 -13 20 3
0 13 -9 23 -20z m-1090 -12 c5 4 5 1 1 -6 -6 -11 -11 -11 -24 0 -14 11 -15 10
-8 -7 5 -15 4 -17 -5 -8 -15 15 -2 38 15 24 7 -6 17 -7 21 -3z m1180 -36 c-3
-3 -16 5 -28 17 l-22 23 28 -17 c15 -10 25 -20 22 -23z m-2407 -7 c-3 -3 -9 2
-12 12 -6 14 -5 15 5 6 7 -7 10 -15 7 -18z m15822 -15 c6 -11 8 -20 6 -20 -3
0 -10 9 -16 20 -6 11 -8 20 -6 20 3 0 10 -9 16 -20z m-14710 -63 c-24 -22 -24
-22 -6 0 10 12 15 27 11 35 -7 10 -5 11 6 0 11 -10 9 -16 -11 -35z m14740 23
c0 -5 -2 -10 -4 -10 -3 0 -8 5 -11 10 -3 6 -1 10 4 10 6 0 11 -4 11 -10z
m-14700 -13 c0 -2 -10 -12 -22 -23 l-23 -19 19 23 c18 21 26 27 26 19z m-1130
-32 c14 -19 14 -19 -2 -6 -10 7 -18 18 -18 24 0 6 1 8 3 6 1 -2 9 -13 17 -24z
m14470 12 c0 -2 -10 -12 -22 -23 l-23 -19 19 23 c18 21 26 27 26 19z m-11919
-30 c-6 -8 -7 -18 -3 -22 4 -5 1 -5 -6 -1 -10 6 -10 11 -1 22 6 8 14 14 16 14
3 0 0 -6 -6 -13z m13369 7 c0 -8 -19 -13 -24 -6 -3 5 1 9 9 9 8 0 15 -2 15 -3z
m-1541 -30 c-6 -8 -16 -14 -21 -14 -7 0 -6 5 1 13 6 8 8 17 4 21 -4 4 0 4 10
0 14 -5 15 -9 6 -20z m36 17 c3 -5 2 -12 -3 -15 -5 -3 -9 1 -9 9 0 17 3 19 12
6z m2519 -17 c3 -8 2 -12 -4 -9 -6 3 -10 10 -10 16 0 14 7 11 14 -7z m-15 -24
c11 -24 11 -24 -3 -6 -11 13 -16 15 -16 6 0 -7 -2 -11 -5 -8 -3 3 -3 13 1 22
7 19 7 19 23 -14z m-1006 6 c4 -10 1 -13 -8 -9 -8 3 -12 9 -9 14 7 12 11 11
17 -5z m-13318 -6 c3 -6 -1 -7 -9 -4 -18 7 -21 14 -7 14 6 0 13 -4 16 -10z
m45 -34 c-7 -7 -13 -7 -20 0 -6 6 -3 10 10 10 13 0 16 -4 10 -10z m13306 2 c3
-4 -1 -5 -10 -4 -8 1 -18 5 -22 8 -3 4 1 5 10 4 8 -1 18 -5 22 -8z m-13241
-36 c-3 -3 -16 5 -28 17 l-22 23 28 -17 c15 -10 25 -20 22 -23z m-1691 20 c3
-5 -1 -9 -9 -9 -8 0 -12 4 -9 9 3 4 7 8 9 8 2 0 6 -4 9 -8z m13257 -19 c13
-16 12 -17 -3 -4 -17 13 -22 21 -14 21 2 0 10 -8 17 -17z m1725 5 c4 -6 3 -8
-4 -4 -6 3 -13 2 -17 -4 -3 -5 -11 -10 -18 -10 -6 0 -2 7 9 15 23 18 21 17 30
3z m-15016 -44 c0 -8 -19 -13 -24 -6 -3 5 1 9 9 9 8 0 15 -2 15 -3z m13219 -8
c9 -11 9 -16 -1 -22 -7 -4 -10 -4 -6 1 4 4 3 14 -3 22 -6 7 -9 13 -6 13 2 0
10 -6 16 -14z m1810 -2 c-12 -15 -11 -19 9 -32 12 -8 22 -21 22 -29 0 -9 -11
-2 -26 16 -21 26 -24 34 -14 46 7 8 15 15 17 15 3 0 -1 -7 -8 -16z m-15081
-19 c-3 -3 -9 2 -12 12 -6 14 -5 15 5 6 7 -7 10 -15 7 -18z m-17 -38 c-10 -9
-11 -8 -5 6 3 10 9 15 12 12 3 -3 0 -11 -7 -18z m13259 19 c0 -2 -7 -7 -16
-10 -8 -3 -12 -2 -9 4 6 10 25 14 25 6z m2701 -19 c-10 -9 -11 -8 -5 6 3 10 9
15 12 12 3 -3 0 -11 -7 -18z m-14000 -20 c-6 -8 -7 -18 -3 -22 4 -5 1 -5 -6
-1 -10 6 -10 11 -1 22 6 8 14 14 16 14 3 0 0 -6 -6 -13z m11249 -1 c-7 -7 -13
-7 -20 0 -6 6 -3 10 10 10 13 0 16 -4 10 -10z m-55 -16 c-10 -11 -23 -20 -29
-20 -6 0 0 9 14 20 32 25 38 25 15 0z m2788 -25 c-3 -9 -8 -14 -10 -11 -3 3
-2 9 2 15 9 16 15 13 8 -4z m-13938 -5 c3 -6 -1 -7 -9 -4 -18 7 -21 14 -7 14
6 0 13 -4 16 -10z m45 -34 c-7 -7 -13 -7 -20 0 -6 6 -3 10 10 10 13 0 16 -4
10 -10z m13194 5 c-8 -8 -34 -10 -38 -2 -3 4 6 7 19 7 14 0 22 -2 19 -5z
m-13129 -39 c-3 -3 -16 5 -28 17 l-22 23 28 -17 c15 -10 25 -20 22 -23z
m13796 -5 c-10 -9 -11 -8 -5 6 3 10 9 15 12 12 3 -3 0 -11 -7 -18z m-2942 -41
c9 -11 9 -16 -1 -22 -7 -4 -10 -4 -6 1 4 4 3 14 -3 22 -6 7 -9 13 -6 13 2 0
10 -6 16 -14z m2306 -26 c10 -11 16 -20 13 -20 -3 0 -13 9 -23 20 -10 11 -16
20 -13 20 3 0 13 -9 23 -20z m-15424 -7 c13 -16 12 -17 -3 -4 -17 13 -22 21
-14 21 2 0 10 -8 17 -17z m15457 -8 c-3 -3 -9 2 -12 12 -6 14 -5 15 5 6 7 -7
10 -15 7 -18z m573 -2 c-12 -20 -14 -14 -5 12 4 9 9 14 11 11 3 -2 0 -13 -6
-23z m-2941 3 c0 -2 -7 -7 -16 -10 -8 -3 -12 -2 -9 4 6 10 25 14 25 6z m2377
-35 c0 -11 -5 -18 -9 -15 -4 3 -5 11 -1 19 7 21 12 19 10 -4z m-2427 -5 c-7
-7 -13 -7 -20 0 -6 6 -3 10 10 10 13 0 16 -4 10 -10z m-55 -16 c-10 -11 -23
-20 -29 -20 -6 0 0 9 14 20 32 25 38 25 15 0z m-13032 -15 c-3 -9 -8 -14 -10
-11 -3 3 -2 9 2 15 9 16 15 13 8 -4z m-45 -70 c-3 -3 -9 2 -12 12 -6 14 -5 15
5 6 7 -7 10 -15 7 -18z m15676 -51 c6 2 8 1 3 -1 -4 -3 -5 -9 -1 -14 10 -17
-3 -9 -22 14 -10 12 -12 17 -5 10 7 -6 19 -10 25 -9z m-2785 -8 c9 -11 9 -16
-1 -22 -7 -4 -10 -4 -6 1 4 4 3 14 -3 22 -6 7 -9 13 -6 13 2 0 10 -6 16 -14z
m-12949 -22 c0 -8 -19 -13 -24 -6 -3 5 1 9 9 9 8 0 15 -2 15 -3z m2840 2 c0
-2 -8 -10 -17 -17 -16 -13 -17 -12 -4 4 13 16 21 21 21 13z m-3174 -27 c3 -6
1 -15 -5 -20 -6 -5 -9 -6 -6 -3 3 4 0 13 -6 21 -8 9 -8 13 -1 13 6 0 14 -5 18
-11z m13254 7 c0 -2 -7 -7 -16 -10 -8 -3 -12 -2 -9 4 6 10 25 14 25 6z m2864
-32 c5 -14 4 -15 -9 -4 -17 14 -19 20 -6 20 5 0 12 -7 15 -16z m-15860 -2 c3
-5 -1 -9 -9 -9 -8 0 -12 4 -9 9 3 4 7 8 9 8 2 0 6 -4 9 -8z m2990 0 c2 -4 -4
-8 -14 -8 -10 0 -16 4 -14 8 3 4 9 8 14 8 5 0 11 -4 14 -8z m9956 -6 c-7 -7
-13 -7 -20 0 -6 6 -3 10 10 10 13 0 16 -4 10 -10z m-45 -6 c-12 -19 -43 -31
-51 -18 -4 6 -3 8 3 5 6 -4 19 0 29 8 23 17 27 18 19 5z m2988 -10 c-3 -12 -8
-19 -11 -16 -5 6 5 36 12 36 2 0 2 -9 -1 -20z m-15907 -48 c-17 -16 -18 -16
-5 5 7 12 15 20 18 17 3 -2 -3 -12 -13 -22z m-203 -18 c-4 -12 -8 -13 -14 -3
-9 15 -2 32 11 24 5 -3 6 -13 3 -21z m157 -8 c0 -2 -8 -10 -17 -17 -16 -13
-17 -12 -4 4 13 16 21 21 21 13z m12841 -23 c13 -16 12 -17 -3 -4 -10 7 -18
15 -18 17 0 8 8 3 21 -13z m-12853 -21 c15 12 16 11 3 -4 -14 -19 -32 -15 -30
5 0 8 2 8 6 -1 4 -10 8 -10 21 0z m12786 -20 c2 -4 -4 -8 -14 -8 -10 0 -16 4
-14 8 3 4 9 8 14 8 5 0 11 -4 14 -8z m3302 -21 c-4 -6 -13 -11 -19 -10 -9 0
-9 2 1 6 6 2 12 9 12 14 0 6 -5 7 -12 3 -7 -5 -8 -3 -3 5 5 9 11 9 17 3 6 -6
7 -15 4 -21z m-12776 -5 c0 -2 -8 -10 -17 -17 -16 -13 -17 -12 -4 4 13 16 21
21 21 13z m12834 -14 c3 -5 -1 -9 -9 -9 -8 0 -12 4 -9 9 3 4 7 8 9 8 2 0 6 -4
9 -8z m-16209 -42 c-3 -5 -13 -6 -21 -3 -12 4 -13 8 -3 14 15 9 32 2 24 -11z
m3449 2 c2 -4 -4 -8 -14 -8 -10 0 -16 4 -14 8 3 4 9 8 14 8 5 0 11 -4 14 -8z
m9147 -119 c13 -16 12 -17 -3 -4 -17 13 -22 21 -14 21 2 0 10 -8 17 -17z m-67
-41 c2 -4 -4 -8 -14 -8 -10 0 -16 4 -14 8 3 4 9 8 14 8 5 0 11 -4 14 -8z
m-8834 -26 c0 -2 -8 -10 -17 -17 -16 -13 -17 -12 -4 4 13 16 21 21 21 13z m61
-83 c13 -16 12 -17 -3 -4 -17 13 -22 21 -14 21 2 0 10 -8 17 -17z m130 -86
c-8 -8 -14 -7 -23 2 -11 10 -9 11 6 5 15 -6 17 -4 11 6 -6 9 -4 11 4 5 9 -5
10 -10 2 -18z m8390 -4 c13 -16 12 -17 -3 -4 -10 7 -18 15 -18 17 0 8 8 3 21
-13z m-67 -41 c2 -4 -4 -8 -14 -8 -10 0 -16 4 -14 8 3 4 9 8 14 8 5 0 11 -4
14 -8z m-8203 -35 c-6 -8 -7 -18 -3 -22 4 -5 1 -5 -6 -1 -10 6 -10 11 -1 22 6
8 14 14 16 14 3 0 0 -6 -6 -13z m70 -74 c13 -16 12 -17 -3 -4 -17 13 -22 21
-14 21 2 0 10 -8 17 -17z m7993 5 c-5 -8 -1 -9 12 -4 14 5 16 4 7 -5 -13 -13
-37 -3 -28 12 4 5 8 9 11 9 3 0 2 -5 -2 -12z m-7863 -91 c-8 -8 -14 -7 -23 2
-11 10 -9 11 6 5 15 -6 17 -4 11 6 -6 9 -4 11 4 5 9 -5 10 -10 2 -18z m7748
-1 c9 -11 9 -16 -1 -22 -7 -4 -10 -4 -6 1 4 4 3 14 -3 22 -6 7 -9 13 -6 13 2
0 10 -6 16 -14z m-59 -60 c0 -2 -8 -10 -17 -17 -16 -13 -17 -12 -4 4 13 16 21
21 21 13z m-7569 -19 c-6 -8 -7 -18 -3 -22 4 -5 1 -5 -6 -1 -10 6 -10 11 -1
22 6 8 14 14 16 14 3 0 0 -6 -6 -13z m70 -74 c13 -16 12 -17 -3 -4 -17 13 -22
21 -14 21 2 0 10 -8 17 -17z m7353 5 c-5 -8 -1 -9 12 -4 14 5 16 4 7 -5 -13
-13 -37 -3 -28 12 4 5 8 9 11 9 3 0 2 -5 -2 -12z m-7223 -91 c-8 -8 -14 -7
-23 2 -11 10 -9 11 6 5 15 -6 17 -4 11 6 -6 9 -4 11 4 5 9 -5 10 -10 2 -18z
m7108 -1 c9 -11 9 -16 -1 -22 -7 -4 -10 -4 -6 1 4 4 3 14 -3 22 -6 7 -9 13 -6
13 2 0 10 -6 16 -14z m-7078 -33 c13 -16 12 -17 -3 -4 -17 13 -22 21 -14 21 2
0 10 -8 17 -17z m7019 -27 c0 -2 -8 -10 -17 -17 -16 -13 -17 -12 -4 4 13 16
21 21 21 13z m-6926 -37 c-3 -5 -10 -7 -15 -3 -5 3 -7 10 -3 15 3 5 10 7 15 3
5 -3 7 -10 3 -15z m71 -40 c-3 -16 0 -19 13 -14 9 3 13 3 9 -1 -4 -4 1 -16 10
-27 15 -17 12 -16 -14 3 -18 13 -30 27 -27 32 3 4 -1 8 -8 8 -9 0 -9 3 2 10
20 13 19 13 15 -11z m6709 -11 c-5 -8 -1 -9 12 -4 14 5 16 4 7 -5 -13 -13 -37
-3 -28 12 4 5 8 9 11 9 3 0 2 -5 -2 -12z m-6599 -78 c-8 -13 7 -13 23 0 7 5 6
3 -2 -6 -14 -17 -41 -10 -31 7 4 5 8 9 11 9 3 0 2 -4 -1 -10z m6484 -14 c9
-11 9 -16 -1 -22 -7 -4 -10 -4 -6 1 4 4 3 14 -3 22 -6 7 -9 13 -6 13 2 0 10
-6 16 -14z m-69 -56 c-6 -4 -11 -10 -10 -14 0 -4 -12 -17 -27 -29 -26 -20 -27
-20 -10 -1 9 11 14 24 10 28 -4 4 0 4 9 1 13 -5 16 -2 13 14 -3 14 0 18 12 14
10 -4 11 -8 3 -13z m-6276 -41 c-3 -5 -10 -7 -15 -3 -5 3 -7 10 -3 15 3 5 10
7 15 3 5 -3 7 -10 3 -15z m71 -40 c-3 -16 0 -19 13 -14 9 3 13 3 9 -1 -4 -4 1
-16 10 -27 15 -17 12 -16 -14 3 -18 13 -30 27 -27 32 3 4 -1 8 -8 8 -9 0 -9 3
2 10 20 13 19 13 15 -11z m6078 -19 c4 0 5 5 1 12 -5 7 -3 8 5 3 9 -5 10 -10
2 -18 -8 -8 -15 -6 -26 6 -8 9 -10 12 -3 7 7 -6 16 -10 21 -10z m-5968 -70
c-8 -13 7 -13 23 0 7 5 6 3 -2 -6 -14 -17 -41 -10 -31 7 4 5 8 9 11 9 3 0 2
-4 -1 -10z m5849 -31 c-3 -5 -10 -7 -15 -3 -5 3 -7 10 -3 15 3 5 10 7 15 3 5
-3 7 -10 3 -15z m-74 -39 c-6 -4 -11 -10 -10 -14 0 -4 -12 -17 -27 -29 -26
-20 -27 -20 -10 -1 9 11 14 24 10 28 -4 4 0 4 9 1 13 -5 16 -2 13 14 -3 14 0
18 12 14 10 -4 11 -8 3 -13z m-5636 -41 c-3 -5 -10 -7 -15 -3 -5 3 -7 10 -3
15 3 5 10 7 15 3 5 -3 7 -10 3 -15z m71 -40 c-3 -16 0 -19 13 -14 9 3 13 3 9
-1 -4 -4 1 -16 10 -27 15 -17 12 -16 -14 3 -18 13 -30 27 -27 32 3 4 -1 8 -8
8 -9 0 -9 3 2 10 20 13 19 13 15 -11z m5438 -19 c4 0 5 5 1 12 -5 7 -3 8 5 3
9 -5 10 -10 2 -18 -8 -8 -15 -6 -26 6 -8 9 -10 12 -3 7 7 -6 16 -10 21 -10z
m-5356 -55 c0 -8 -4 -12 -9 -9 -5 3 -6 10 -3 15 9 13 12 11 12 -6z m86 -3 c4
9 6 9 6 1 2 -20 -16 -24 -30 -5 -13 15 -12 16 3 4 13 -10 17 -10 21 0z m-38
-22 c-3 -5 -12 -10 -18 -10 -7 0 -6 4 3 10 19 12 23 12 15 0z m5189 -21 c-3
-5 -10 -7 -15 -3 -5 3 -7 10 -3 15 3 5 10 7 15 3 5 -3 7 -10 3 -15z m-5166 0
c-2 -3 4 -14 12 -25 14 -18 14 -18 -2 -5 -10 7 -16 17 -13 21 3 5 0 11 -5 13
-7 4 -6 5 1 4 6 -2 9 -5 7 -8z m5092 -39 c-6 -4 -11 -10 -10 -14 0 -4 -12 -17
-27 -29 -26 -20 -27 -20 -10 -1 9 11 14 24 10 28 -4 4 0 4 9 1 13 -5 16 -2 13
14 -3 14 0 18 12 14 10 -4 11 -8 3 -13z m-5030 -5 c0 -12 -19 -12 -23 0 -4 9
-1 12 9 8 7 -3 14 -7 14 -8z m40 -31 c0 -8 -19 -13 -24 -6 -3 5 1 9 9 9 8 0
15 -2 15 -3z m4863 -64 c4 0 5 5 1 12 -5 7 -3 8 5 3 9 -5 10 -10 2 -18 -8 -8
-15 -6 -26 6 -8 9 -10 12 -3 7 7 -6 16 -10 21 -10z m-4779 1 c-2 -2 6 -16 18
-30 19 -22 17 -21 -12 4 -19 17 -37 31 -39 32 -2 1 6 1 17 0 12 0 19 -3 16 -6z
m63 -56 c0 -8 -4 -12 -9 -9 -5 3 -6 10 -3 15 9 13 12 11 12 -6z m86 -3 c4 9 6
9 6 1 2 -20 -16 -24 -30 -5 -13 15 -12 16 3 4 13 -10 17 -10 21 0z m4551 -7
c-4 -8 -11 -12 -16 -9 -6 4 -5 10 3 15 19 12 19 11 13 -6z m-4589 -15 c-3 -5
-12 -10 -18 -10 -7 0 -6 4 3 10 19 12 23 12 15 0z m23 -21 c-2 -3 4 -14 12
-25 14 -18 14 -18 -2 -5 -10 7 -16 17 -13 21 3 5 0 11 -5 13 -7 4 -6 5 1 4 6
-2 9 -5 7 -8z m4532 5 c0 -8 -19 -13 -24 -6 -3 5 1 9 9 9 8 0 15 -2 15 -3z
m-4470 -49 c0 -12 -19 -12 -23 0 -4 9 -1 12 9 8 7 -3 14 -7 14 -8z m4389 -8
c-2 -1 -20 -15 -39 -32 -29 -25 -31 -26 -12 -4 12 14 20 28 18 30 -3 3 4 6 16
6 11 1 19 1 17 0z m-4349 -23 c0 -8 -19 -13 -24 -6 -3 5 1 9 9 9 8 0 15 -2 15
-3z m4265 -33 c3 -5 2 -12 -3 -15 -5 -3 -9 1 -9 9 0 17 3 19 12 6z m-77 -9
c15 12 16 11 3 -4 -14 -19 -32 -15 -30 5 0 8 2 8 6 -1 4 -10 8 -10 21 0z
m-4104 -21 c-2 -2 6 -16 18 -30 19 -22 17 -21 -12 4 -19 17 -37 31 -39 32 -2
1 6 1 17 0 12 0 19 -3 16 -6z m4141 -9 c-3 -3 -11 0 -18 7 -9 10 -8 11 6 5 10
-3 15 -9 12 -12z m-33 -9 c-6 -2 -10 -8 -7 -13 3 -4 -3 -14 -12 -21 -15 -12
-16 -12 -8 1 6 8 10 18 11 23 1 4 2 9 3 12 0 3 7 5 14 4 9 0 9 -2 -1 -6z
m-4045 -38 c0 -8 -4 -12 -9 -9 -5 3 -6 10 -3 15 9 13 12 11 12 -6z m86 -3 c4
9 6 9 6 1 2 -20 -16 -24 -30 -5 -13 15 -12 16 3 4 13 -10 17 -10 21 0z m3911
-7 c-4 -8 -11 -12 -16 -9 -6 4 -5 10 3 15 19 12 19 11 13 -6z m-3949 -15 c-3
-5 -12 -10 -18 -10 -7 0 -6 4 3 10 19 12 23 12 15 0z m23 -21 c-2 -3 4 -14 12
-25 14 -18 14 -18 -2 -5 -10 7 -16 17 -13 21 3 5 0 11 -5 13 -7 4 -6 5 1 4 6
-2 9 -5 7 -8z m3892 5 c0 -8 -19 -13 -24 -6 -3 5 1 9 9 9 8 0 15 -2 15 -3z
m-3830 -49 c0 -12 -19 -12 -23 0 -4 9 -1 12 9 8 7 -3 14 -7 14 -8z m3749 -8
c-2 -1 -20 -15 -39 -32 -29 -25 -31 -26 -12 -4 12 14 20 28 18 30 -3 3 4 6 16
6 11 1 19 1 17 0z m-3709 -23 c0 -8 -19 -13 -24 -6 -3 5 1 9 9 9 8 0 15 -2 15
-3z m3625 -33 c3 -5 2 -12 -3 -15 -5 -3 -9 1 -9 9 0 17 3 19 12 6z m-77 -9
c15 12 16 11 3 -4 -14 -19 -32 -15 -30 5 0 8 2 8 6 -1 4 -10 8 -10 21 0z
m-3473 -22 c3 -6 -1 -7 -9 -4 -18 7 -21 14 -7 14 6 0 13 -4 16 -10z m3510 -8
c-3 -3 -11 0 -18 7 -9 10 -8 11 6 5 10 -3 15 -9 12 -12z m-33 -9 c-6 -2 -10
-8 -7 -13 3 -4 -3 -14 -12 -21 -15 -12 -16 -12 -8 1 6 8 10 18 11 23 1 4 2 9
3 12 0 3 7 5 14 4 9 0 9 -2 -1 -6z m-3442 -13 c0 -5 -2 -10 -4 -10 -3 0 -8 5
-11 10 -3 6 -1 10 4 10 6 0 11 -4 11 -10z m3394 -35 c-4 -8 -11 -12 -16 -9 -6
4 -5 10 3 15 19 12 19 11 13 -6z m-3294 -37 c0 -6 -6 -5 -15 2 -8 7 -15 14
-15 16 0 2 7 1 15 -2 8 -4 15 -11 15 -16z m3260 6 c0 -8 -19 -13 -24 -6 -3 5
1 9 9 9 8 0 15 -2 15 -3z m-3190 -49 c0 -12 -19 -12 -23 0 -4 9 -1 12 9 8 7
-3 14 -7 14 -8z m3064 -45 c-26 -21 -53 -36 -61 -33 -17 7 -12 12 17 18 25 5
62 34 55 44 -2 4 5 8 16 8 14 1 6 -9 -27 -37z m-3037 15 c0 -8 -4 -12 -9 -9
-5 3 -6 10 -3 15 9 13 12 11 12 -6z m90 -54 c-1 -16 -5 -18 -19 -10 -22 12
-24 23 -3 15 8 -3 15 -1 15 4 0 6 2 10 4 10 3 0 4 -9 3 -19z m2853 -26 c-7 -9
-15 -13 -19 -10 -3 3 1 10 9 15 21 14 24 12 10 -5z m-2820 -15 c0 -5 -2 -10
-4 -10 -3 0 -8 5 -11 10 -3 6 -1 10 4 10 6 0 11 -4 11 -10z m2754 -35 c-4 -8
-11 -12 -16 -9 -6 4 -5 10 3 15 19 12 19 11 13 -6z m-2654 -37 c0 -6 -6 -5
-15 2 -8 7 -15 14 -15 16 0 2 7 1 15 -2 8 -4 15 -11 15 -16z m2615 13 c3 -5 2
-12 -3 -15 -5 -3 -9 1 -9 9 0 17 3 19 12 6z m-2545 -56 c0 -12 -19 -12 -23 0
-4 9 -1 12 9 8 7 -3 14 -7 14 -8z m2466 2 c20 8 17 -4 -4 -16 -15 -8 -18 -5
-19 12 0 12 1 17 4 10 2 -7 11 -9 19 -6z m-2439 -32 c0 -8 -4 -12 -9 -9 -5 3
-6 10 -3 15 9 13 12 11 12 -6z m2403 -9 c0 -3 -4 -8 -10 -11 -5 -3 -10 -1 -10
4 0 6 5 11 10 11 6 0 10 -2 10 -4z m-2313 -45 c-1 -16 -5 -18 -19 -10 -22 12
-24 23 -3 15 8 -3 15 -1 15 4 0 6 2 10 4 10 3 0 4 -9 3 -19z m2213 -26 c-7 -9
-15 -13 -19 -10 -3 3 1 10 9 15 21 14 24 12 10 -5z m-2180 -15 c0 -5 -2 -10
-4 -10 -3 0 -8 5 -11 10 -3 6 -1 10 4 10 6 0 11 -4 11 -10z m2114 -35 c-4 -8
-11 -12 -16 -9 -6 4 -5 10 3 15 19 12 19 11 13 -6z m-2014 -37 c0 -6 -6 -5
-15 2 -8 7 -15 14 -15 16 0 2 7 1 15 -2 8 -4 15 -11 15 -16z m1975 13 c3 -5 2
-12 -3 -15 -5 -3 -9 1 -9 9 0 17 3 19 12 6z m-79 -54 c20 8 17 -4 -4 -16 -15
-8 -18 -5 -19 12 0 12 1 17 4 10 2 -7 11 -9 19 -6z m-36 -41 c0 -3 -4 -8 -10
-11 -5 -3 -10 -1 -10 4 0 6 5 11 10 11 6 0 10 -2 10 -4z m-1654 -78 l29 -33
-32 29 c-18 17 -33 31 -33 33 0 8 8 1 36 -29z m1554 7 c-7 -9 -15 -13 -19 -10
-3 3 1 10 9 15 21 14 24 12 10 -5z m-1475 -44 c3 -5 2 -12 -3 -15 -5 -3 -9 1
-9 9 0 17 3 19 12 6z m1409 -6 c-4 -8 -11 -12 -16 -9 -6 4 -5 10 3 15 19 12
19 11 13 -6z m-39 -24 c3 -5 2 -12 -3 -15 -5 -3 -9 1 -9 9 0 17 3 19 12 6z
m-1308 -36 c0 -8 -4 -12 -9 -9 -5 3 -6 10 -3 15 9 13 12 11 12 -6z m1197 -57
c-15 -15 -30 -28 -33 -28 -2 0 7 13 22 28 22 23 25 31 14 42 -10 12 -9 12 6 0
17 -12 16 -15 -9 -42z m-1137 27 c0 -8 -4 -12 -9 -9 -5 3 -6 10 -3 15 9 13 12
11 12 -6z m1060 -70 c0 -8 -4 -12 -9 -9 -5 3 -6 10 -3 15 9 13 12 11 12 -6z
m-941 -37 l29 -33 -32 29 c-18 17 -33 31 -33 33 0 8 8 1 36 -29z m879 -17 c3
-5 2 -12 -3 -15 -5 -3 -9 1 -9 9 0 17 3 19 12 6z m-800 -20 c3 -5 2 -12 -3
-15 -5 -3 -9 1 -9 9 0 17 3 19 12 6z m740 -10 c3 -5 2 -12 -3 -15 -5 -3 -9 1
-9 9 0 17 3 19 12 6z m-678 -56 c0 -8 -4 -12 -9 -9 -5 3 -6 10 -3 15 9 13 12
11 12 -6z m60 -30 c0 -8 -4 -12 -9 -9 -5 3 -6 10 -3 15 9 13 12 11 12 -6z
m523 2 c0 -2 -15 -16 -32 -33 l-33 -29 29 33 c28 30 36 37 36 29z m-103 -72
c0 -8 -4 -12 -9 -9 -5 3 -6 10 -3 15 9 13 12 11 12 -6z m-301 -37 l29 -33 -32
29 c-18 17 -33 31 -33 33 0 8 8 1 36 -29z m239 -17 c3 -5 2 -12 -3 -15 -5 -3
-9 1 -9 9 0 17 3 19 12 6z m-160 -20 c3 -5 2 -12 -3 -15 -5 -3 -9 1 -9 9 0 17
3 19 12 6z m75 3 c0 -8 -19 -13 -24 -6 -3 5 1 9 9 9 8 0 15 -2 15 -3z m25 -13
c3 -5 2 -12 -3 -15 -5 -3 -9 1 -9 9 0 17 3 19 12 6z m-40 -40 c3 -5 2 -12 -3
-15 -5 -3 -9 1 -9 9 0 17 3 19 12 6z"/>
<path d="M37049 31541 c-635 -422 -1055 -974 -1214 -1595 -50 -195 -67 -333
-71 -561 -5 -342 36 -581 157 -930 318 -910 996 -1467 1949 -1602 180 -25 677
-25 840 0 319 50 577 142 780 280 108 73 255 226 311 322 94 163 129 293 129
486 0 375 -186 752 -568 1150 -247 258 -506 462 -1087 854 -647 437 -866 642
-1011 949 -96 204 -126 441 -83 672 6 31 8 58 6 60 -2 2 -64 -36 -138 -85z"/>
<path d="M46144 31608 c35 -133 32 -378 -8 -530 -94 -367 -339 -631 -1001
-1081 -110 -75 -258 -176 -329 -224 -542 -369 -920 -721 -1149 -1068 -73 -112
-167 -303 -201 -411 -117 -378 -50 -725 194 -996 173 -194 495 -354 845 -421
210 -41 342 -50 619 -44 275 6 429 24 641 76 685 168 1218 599 1531 1237 98
202 201 511 243 734 49 261 54 622 12 865 -124 728 -569 1351 -1308 1831 -46
30 -86 54 -89 54 -4 0 -4 -10 0 -22z"/>
</g>
</svg>
